<svg height="512" viewBox="0 0 64 64" width="512" xmlns="http://www.w3.org/2000/svg"><g id="Artboard_14" data-name="Artboard 14"><path d="m51.444 27.556 7.556-7.556-6-6-5.588 5.588a1.413 1.413 0 0 1 -2.412-1v-16.588h-40v60h40v-18.887a22 22 0 0 1 6.444-15.557z" fill="#d2813c"/><path d="m5 2v60h11.5v-2.611a9.389 9.389 0 0 1 2.75-6.639 9.389 9.389 0 0 0 2.75-6.639v-8.222a9.389 9.389 0 0 0 -2.75-6.639l-.5-.5a9.389 9.389 0 0 1 -2.75-6.639v-22.111z" fill="#bc6829"/><path d="m51.444 27.556 7.556-7.556-6-6-5.588 5.588a1.413 1.413 0 0 1 -2.412-1v-16.588h-19v6.755a3.007 3.007 0 0 1 -.88 2.125l-2.24 2.24a3.007 3.007 0 0 0 -.88 2.125v7.51a3.007 3.007 0 0 0 .88 2.125l8.74 8.74a3.007 3.007 0 0 1 .88 2.125v15.01a3.007 3.007 0 0 1 -.88 2.125l-3.99 3.99a3.005 3.005 0 0 0 2.125 5.13h15.245v-18.887a22 22 0 0 1 6.444-15.557z" fill="#e0a05c"/><path d="m5 2h5v60h-5z" fill="#6a3b17"/><g fill="#8d4e1f"><circle cx="25" cy="26" r="3"/><path d="m24 49.958h-2v-16.541a8 8 0 0 1 0-14.834v-16.583h2v17.29a1 1 0 0 1 -.715.959 6 6 0 0 0 0 11.5 1 1 0 0 1 .715.961z"/><path d="m30 43h-2v-11.255a1 1 0 0 1 .428-.82 6 6 0 0 0 0-9.85l1.145-1.64a8 8 0 0 1 .427 12.81z"/><path d="m11 43h2v19h-2z"/><path d="m16 8h2v9h-2z"/><path d="m9 2h2v32h-2z"/><path d="m32 40h2v22h-2z"/><path d="m18 55.999h2v6.001h-2z"/><path d="m37 2h2v28h-2z"/><path d="m31 2h2v14h-2z"/><path d="m16 34h2v12h-2z"/><path d="m39 34h2v16h-2z"/></g><path d="m53 14-5.588 5.588a1.413 1.413 0 0 1 -2.412-1v5.264a2.132 2.132 0 0 0 3.64 1.507l7.86-7.859z" fill="#e6b37d"/></g><g id="BG"><path d="m29 26a4 4 0 1 0 -4 4 4 4 0 0 0 4-4zm-6 0a2 2 0 1 1 2 2 2 2 0 0 1 -2-2z"/><path d="m31 26a6.01 6.01 0 0 1 -2.572 4.925 1 1 0 0 0 -.428.82v11.255h2v-10.755a8 8 0 0 0 -.427-12.81l-1.145 1.64a6.01 6.01 0 0 1 2.572 4.925z"/><path d="m16 8h2v9h-2z"/><path d="m16 34h2v12h-2z"/><path d="m4 2v60a1 1 0 0 0 1 1h40a1 1 0 0 0 1-1v-18.888a20.865 20.865 0 0 1 6.151-14.849l7.556-7.556a1 1 0 0 0 0-1.414l-6-6a1 1 0 0 0 -1.414 0l-5.588 5.588a.413.413 0 0 1 -.7-.292v-16.589a1 1 0 0 0 -1-1h-40.005a1 1 0 0 0 -1 1zm2 1h3v31h2v-31h11v15.583a8 8 0 0 0 0 14.835v16.539h2v-17.247a1 1 0 0 0 -.715-.959 6 6 0 0 1 0-11.5 1 1 0 0 0 .715-.961v-16.29h7v13h2v-13h4v27h2v-27h5v15.589a2.413 2.413 0 0 0 4.119 1.711l4.881-4.886 4.586 4.586-6.849 6.849a22.85 22.85 0 0 0 -6.737 16.263v17.888h-10v-21h-2v21h-12v-5h-2v5h-5v-18h-2v18h-5z"/><path d="m39 34h2v16h-2z"/></g></svg>