<svg height="512pt" viewBox="0 -36 512 511" width="512pt" xmlns="http://www.w3.org/2000/svg"><path d="m457.597656 86.09375-85.0625 43.671875 6.863282 13.363281v129.46875l-11.539063 13.851563 23.078125 19.230469 121.0625-145.308594zm0 0" fill="#7c3d30"/><path d="m0 .5h394.414062v438.1875h-394.414062zm0 0" fill="#c6725a"/><path d="m197.207031.5h197.207031v438.1875h-197.207031zm0 0" fill="#b45f4a"/><path d="m149.691406 154.898438-66.925781 45.90625v237.882812h-30.042969v-253.707031l48.609375-33.335938-48.609375-44.011719v-107.132812h30.042969v93.800781zm0 0" fill="#9a503e"/><g fill="#7c3d30"><path d="m320.621094 272.765625-67.84375 43.832031v122.089844h-30.042969v-138.445312l47.6875-30.8125-47.6875-40.675782v-39.597656h30.042969v25.734375zm0 0"/><path d="m222.734375.5h30.042969v116.425781h-30.042969zm0 0"/><path d="m307.933594 121.714844h30.042968v97.875h-30.042968zm0 0"/></g><path d="m138.066406 286.324219h30.039063v152.363281h-30.039063zm0 0" fill="#9a503e"/><path d="m307.933594 61.578125h30.042968v38.859375h-30.042968zm0 0" fill="#7c3d30"/><path d="m138.058594 213.289062h30.042968v38.859376h-30.042968zm0 0" fill="#9a503e"/><path d="m138.066406.5h30.039063v88.195312h-30.039063zm0 0" fill="#9a503e"/><path d="m303.097656 351.734375h30.042969v86.953125h-30.042969zm0 0" fill="#7c3d30"/></svg>