<?xml version="1.0" encoding="iso-8859-1"?><!-- Generator: Adobe Illustrator 19.0.0, SVG Export Plug-In . SVG Version: 6.00 Build 0)  --><svg version="1.1" id="Capa_1" xmlns="http://www.w3.org/2000/svg" xmlns:xlink="http://www.w3.org/1999/xlink" x="0px" y="0px"	 viewBox="0 0 513.335 513.335" style="enable-background:new 0 0 513.335 513.335;" xml:space="preserve"><rect x="238.004" y="397.415" style="fill:#997960;" width="37.36" height="115.92"/><path style="fill:#7FB241;" d="M116.612,427.031c2.672-7.792-5.36-14.048-10.912-5.248c-1.968,3.136-3.344,7.088-6.752,8.528	c-4.64,1.952-10.192-4.048-7.904-8.528c2.752-5.408,15.36-8.256,8.8-14.016c-5.472-0.624-10.96-1.248-16.432-1.872	c-6.704-9.6-7.328-23.088-1.552-33.28c3.536-6.224,8.848-14.928,3.072-19.152c-4.08-2.992-10.24,0.016-14.768-2.24	c-6.992-3.488-3.52-14.048,0.832-20.528c-12.384-6.832-11.728-12.576-7.04-19.584c10.8-16.144,22.912-33.312,41.328-39.456	c-2.928-0.32-30.912-2.976-33.424-4.528c-3.92-2.416-3.424-9.376,0.8-11.2c2.464-1.072,5.312-0.48,7.952-0.928	c10.144-1.712,15.216-17.664,25.28-15.568c-3.136-5.008-10.528-15.04-10.24-20.592c0.192-3.84,3.904-7.696,7.552-6.496	c-10.912-17.712-3.696-16.08,3.328-27.392c3.984-6.4,1.84-16.384-17.328-24.048c7.84-9.024,17.152-16.752,27.456-22.8	c0.032-9.344-12.32-20-2.064-25.744c5.008-2.8,13.136,1.648,16.192-3.2c3.088-4.8-4.368-10.896-2.432-16.272	c2.64-0.096,5.28-0.192,7.904-0.288c-0.848-13.424-1.296-23.6,11.088-25.36c40.352-5.76,58.016-88.192,100.656-62.176	c3.12,1.904,5.92,4.544,9.472,5.344c6.56,1.504,14.352-3.472,19.68,0.624c2.176,1.664,3.2,4.448,5.168,6.352	c7.232,6.976,19.824-2.016,29.136,1.76c4.192,1.696,79.92,103.088,83.056,115.264c1.184,4.64,1.04,9.488,1.184,14.288	c1.6,51.344,41.056,74.208,18.256,95.424c4.784,2.176,10.704,1.632,15.008-1.36c2.992,10.016,2.8,20.944-0.544,30.848	c9.76,0.688,17.12,12.096,13.728,21.28c12.064-1.152,15.04,30.336,0.992,44.288c-7.52,7.472-21.36,9.024-28.352,1.056	c35.536,48.144-20.432,112.608-91.28,80.672c-20.576-9.28-15.744-1.44-31.76,1.552c-9.984,1.872-20.704-4.384-30.128-0.592	c-34.144,13.776-22.048-25.12-91.696-5.584c-8.72,2.448-19.424,4.688-25.728-1.808c-8.688,5.024-17.392,10.048-26.08,15.056"/><path style="fill:#8BC540;" d="M244.628,20.631c-3.024,16,9.712,5.776-1.712,27.712c-5.488,10.56,0.88,11.728,9.36,14.048	c11.488,3.136,17.248,17.376,28.752,20.432c11.792,3.12,8.208,2.448,10.224,11.424c4.656,20.672,50.48-3.04,63.056,32.912	c4.848,13.872-2.912,30.72-9.648,34.032c-5.04,2.48-11.04-3.552-16.352-1.712c-6.672,2.32-4.272,12.64-7.92,18.688	c-5.136,8.544-19.552,5.12-26.384,12.368c-4.688,4.992-3.84,13.056-1.2,19.36c17.92,42.848,0.464,38.88-27.152,67.824	c-13.728,14.4-12.816,29.488-7.728,34.224c15.2,14.192,51.488-15.648,67.488-15.744c12.576-0.08,20.8,18.336,37.456,43.872	c15.056,23.072,31.248,20.928,34.88,10.112c4.736-14.096-18.208-21.952-18-35.792c29.12-1.76,31.184,41.632,31.856-22.464	c0.464-43.888-10.992-11.04-13.008-62.08c-0.848-21.584-31.456-48.704-13.392-68.288c5.136-5.568,8.24-7.2-4.816-20.352	c-8.176-8.24-10.912-20.352-17.152-30.144c-5.584-8.752-13.952-15.632-18.496-24.96c-5.456-11.184-5.392-25.68-14.944-33.648	c-4.624-3.872-10.848-5.456-15.424-9.392c-8.736-7.504-4.896-9.168-17.2-13.152c-15.984-5.2-32.72-8.128-49.52-8.688"/><path style="fill:#7CA740;" d="M185.524,68.839c1.776,11.376,0.928,23.152-2.448,34.16c-8.128,26.464,16.496,19.248,11.888,47.488	c11.952,2.544,22.832-8.144,35.024-9.04c11.232-0.816,22.304,8.16,23.808,19.312c-42.928-11.504-74.288,15.776-71.056,30.848	c28.848,8.368,44.656-27.968,27.648,28.032c17.008,1.536,70.176,1.056,60.352,27.36c-5.968,16-36.528,10.496-31.472,73.008	c3.504,43.376,51.568,6.88,79.296,13.808c9.76,2.432,18.736,10.72,18.784,20.768c0.048,8.8-6.416,17.792-2.768,25.792	c2.88,6.32,12.016,11.712,5.952,17.44c-19.456-3.664-40.064-0.976-57.936,7.584c-8.672,4.144-7.344-0.016-14.672-4.576	c-4.72-2.944-10.816-1.44-16.208-0.064c-70.704,18.032-25.472-17.92-71.44-0.384c-53.84,20.528-66.256-8.048-46.704-18.928	c10.08-5.616,28.224-0.784,59.824-0.192c3.312-17.168-30.32-19.616-29.104-36.48c-26.448,4.912-43.552,10.816-53.184,3.488	c-10.512-8-8.656-36-1.568-43.344c5.584-5.792,29.248-6.8,39.376-15.68c24.928-21.888-17.152-31.424,1.344-46.992	c13.12-11.04,28.864-20.656,46-20.32c9.392-11.104-30.352-16.304-49.984-21.152c-2.448-5.808,5.232-7.28,9.888-9.952	c5.952-3.408,8.304-11.888,4.96-17.872c-8.96-16-18.432-4.768-22.736-27.312c-6.496-34.048,14.752-67.424,48.336-75.952"/><g></g><g></g><g></g><g></g><g></g><g></g><g></g><g></g><g></g><g></g><g></g><g></g><g></g><g></g><g></g></svg>