<svg xmlns="http://www.w3.org/2000/svg" version="1.1" xmlns:xlink="http://www.w3.org/1999/xlink" xmlns:svgjs="http://svgjs.com/svgjs" width="512" height="512" x="0" y="0" viewBox="0 0 453.573 453.573" style="enable-background:new 0 0 512 512" xml:space="preserve" class=""><g><path fill="#467536" d="M232.541 262.754a19.94 19.94 0 0 1-4.041-2.445c-.997-.649-1.646-.549-2.195-1.946-1.546-3.842 3.242-1.696 5.538-1.696.847 0 2.096.399 2.593-.399.498-.799-.897-2.395-1.746-2.693a4.994 4.994 0 0 0 .449-3.392c-.897-2.096-1.596 0-3.043-.549a1.997 1.997 0 0 1-1.548-2.545c.449-1.546 1.097-.897 2.395-1.397.499 0 .649-.847 1.347-.947.699-.1 1.446.599 2.046.499a2.296 2.296 0 0 0 2.145-2.146c0-2.145-1.197-.847-2.345-1.197-1.147-.35-1.047-1.247-1.796-2.195-.749-.947-4.989-2.046-3.193-4.989.499-.699 1.796-.549 2.145-1.546.35-.997-.449-1.446-.549-2.046-.399-1.846-.3-2.893-2.096-3.742a12.644 12.644 0 0 0-4.589-1.297c-1.397 0-2.345 2.195-4.091.3-.897-.997 0-2.545-.749-3.392s-3.043 0-3.991 0-3.043.35-3.692-.35v-1.397l-.897-1.297c-.35-1.446 1.047-1.596.897-3.043s-2.643-1.796-3.143-3.043l-.3.449v-.649a5.39 5.39 0 0 0 .449-4.241 6.582 6.582 0 0 1-6.135-1.796c-.35-.399 0-.997-.649-1.496s-1.297-.699-1.846-1.097c-1.496-.997-1.197-1.097-1.546-2.395 0 0 .599-.649.399-1.197-.2-.549-1.347-1.147-2.345-1.397-.997-.25-2.445 0-3.043-1.446s.699-2.593.449-2.993c-.25-.399-2.395-.599-3.242 0-2.693-2.096 1.397-3.492 1.197-4.989-.2-1.496-2.893-1.946-4.291-1.796s-1.546.749-2.693 1.097c-2.395.749-3.892-1.596-5.887-2.395a15.667 15.667 0 0 1-3.442-1.896c-.897-.599-2.693-1.696-3.842-1.047-1.147.649-.35 2.145-.997 2.993-.649.847-2.245 0-3.642 1.247s-.897 3.392-2.593 1.896c-.947-.847 0-3.043-1.996-3.093-1.197 0-2.993 1.896-4.041 2.395-1.047.499-2.245 0-3.392.399a20.347 20.347 0 0 0-3.093 1.197c-.956.508-1.959.927-2.993 1.247-1.796.449-2.245 0-3.642 1.297a7.669 7.669 0 0 0-1.796 3.292c-.549 1.446-.35 1.846-2.195 2.195a3.787 3.787 0 0 1-3.342-.749c-.649 3.592-2.245.847-4.339 2.943-.849.799-.599 1.596-.799 2.693-.449 2.145-.649 1.197-2.395 1.946s-2.096 3.892-1.546 6.235c.549 2.345 2.046 3.093-.449 3.941a2.644 2.644 0 0 1-3.292-1.197c-.449-.749 0-7.583-2.693-3.941-.699.947 0 2.395 0 3.392-.699 2.046-2.445.897-3.093 2.195-.649 1.297.897 2.145.35 3.143-.549.997-2.743.499-3.742 1.047-.997.549-.649 1.147-1.546 1.496-.897.35-1.546 0-2.046 0s-1.247.25-1.097 1.846c0 2.743 1.446 1.796-1.397 3.043-.649.3-.897.897-1.696 1.147s-1.996-.449-2.495.599c-.499 1.049.947 1.596 1.097 2.195a3.703 3.703 0 0 1 0 1.596c0 1.047-1.397 0-.599 1.546.399.849 2.245 1.247 2.993 1.746a7.244 7.244 0 0 0-.499 3.392c0 .897.749 1.247.897 1.896.15.649 0 1.446 0 2.046 0 .599 1.946 1.397 2.195 2.295.22.736-.038 1.53-.649 1.996-.699.549-1.746-.25-2.395 0l-.649 1.347c-1.646 1.297-3.941.449-5.238 2.096-.649.897-.35 2.145-1.147 3.093-.799.947-2.545.35-2.993 1.896-.799 2.593 3.292 1.496 4.041 3.392.3.749-.3 1.746 0 2.445.399 2.096.799.649 1.496 1.646.698.997.35 1.546.997 2.245 1.646 1.946 4.989 0 7.034-.399-.499 1.347-4.989 2.643-5.288 3.991-.3 1.347 3.492 1.546 2.693 4.041 1.147.947 2.893.3 4.241.549a9.003 9.003 0 0 0 4.241.549c-1.097 1.447-3.143 2.893-3.242 4.989 1.446 0 2.445.947 1.846 2.495a3.44 3.44 0 0 0 2.643 0c.278.355.419.797.399 1.247a4.993 4.993 0 0 0 .3-3.492l-.649-.649a4.588 4.588 0 0 1 3.342 3.292c.25.947-.599 2.943 0 3.692 1.047 1.596 6.185.649 7.733 1.097 1.546.449 2.145 1.447 3.242 1.846s3.842.599 3.392 2.643-3.093 1.297-.649 2.445a3.54 3.54 0 0 0 4.389-1.297c1.247 0 1.297 1.397 1.397 2.345.847 0 1.197-.997 1.946-1.197s1.446 0 2.145 0 1.197-1.097 1.996-1.297 1.696.35 2.495 0 1.846-.799 2.146-.799l1.397.549c1.247 0 2.993-1.746 3.492.649 1.446.35 1.197-1.047 2.245-1.297 1.047-.25 1.297.35 2.195.599.897.25 2.345 0 3.043.947 2.245 0 4.989-.35 7.134-.3l3.193-1.097c1.047-.35 2.345 0 3.342 0s1.446-1.996 3.442-2.545 4.339-1.946 7.134-.997a8.744 8.744 0 0 1 1.896.749l.549 1.297h1.297a9.97 9.97 0 0 0 2.096 1.247h3.492c1.097 0 2.693 0 4.091.35 0 0 .599.599 1.147.699s.599-.947 1.496-.449c.897.499 0 2.245 2.545 2.445s1.496-1.047 2.893-2.046c2.145-1.496 1.846 1.347 3.892 1.297a8.126 8.126 0 0 0-.3-3.143l-1.696-1.946h-1.746c-.549 0 0-1.147 0-1.297s-2.245 0-2.893-1.347c-1.446-2.893 3.742-.847 4.989-.449 1.247.399 1.846 1.446 3.292.997s1.546-2.943 3.143-.599c.399-2.993 5.937.997 3.492-3.892 3.043-.699 0-2.195 0-3.292 0-2.146 1.696-1.646 2.843-1.896 2.793-.649 3.292-2.046 3.392-4.989a4.994 4.994 0 0 1 .997-3.242c.897-1.646.499-1.397 2.295-1.846h1.147c.799 0 .997-.699 1.646-.997.649-.3 2.495-.649 2.843-1.347.604-2.74-4.584-1.991-5.881-2.441z" data-original="#467536" class=""></path><path fill="#985b3f" d="M218.672 332.747s14.966 81.665-8.73 120.826h47.741s-14.966-92.292-9.578-131.153c5.387-38.863-29.433 10.327-29.433 10.327z" data-original="#985b3f"></path><path fill="#539642" d="M416.274 266.147a22.343 22.343 0 0 1-4.041-2.445c-1.047-.649-1.646-.599-2.245-1.996-1.496-3.792 3.292-1.646 5.588-1.646.799 0 2.096.399 2.593-.399.499-.799-.947-2.395-1.746-2.743.521-1.05.68-2.242.449-3.392-.897-2.096-1.596 0-3.093-.499a2.045 2.045 0 0 1-1.497-2.594c.449-1.546 1.097-.897 2.345-1.347 1.248-.449.699-.847 1.347-.947s1.496.599 2.046.499a2.247 2.247 0 0 0 2.146-2.145c0-2.145-1.147-.897-2.345-1.247-1.197-.35-.997-1.197-1.746-2.145-.749-.947-4.989-2.046-3.242-4.989.499-.749 1.846-.549 2.145-1.546s-.399-1.496-.499-2.096c-.399-1.796-.3-2.843-2.096-3.742a12.542 12.542 0 0 0-4.639-1.247c-1.347 0-2.345 2.195-4.041.25-.897-.947 0-2.545-.749-3.342-.749-.799-3.093 0-3.991 0-.899 0-3.093.35-3.692-.35v-1.446l-.947-1.247c-.35-1.446 1.097-1.596.947-3.043-.15-1.446-2.643-1.796-3.143-3.043l-.35.399v-.599c.699-1.3.861-2.822.449-4.241a6.836 6.836 0 0 1-6.185-1.796c-.35-.399 0-1.047-.599-1.496a8.52 8.52 0 0 0-1.846-1.097c-1.496-1.047-1.197-1.097-1.546-2.445 0 0 .549-.599.399-1.147s-1.347-1.147-2.395-1.446c-1.047-.3-2.445 0-2.993-1.397s.699-2.593.449-2.993-2.395-.599-3.242 0c-2.693-2.096 1.347-3.492 1.197-4.989-.15-1.496-2.943-1.996-4.341-1.846-1.397.15-1.496.799-2.643 1.147-2.445.749-3.892-1.596-5.887-2.395a13.666 13.666 0 0 1-3.442-1.896c-.947-.599-2.743-1.696-3.842-1.047-1.097.649-.35 2.145-1.047 2.993-.699.847-2.195 0-3.642 1.247s-.849 3.342-2.593 1.846c-.947-.799 0-2.993-1.996-3.043-1.147 0-2.943 1.896-4.041 2.345-1.097.449-2.195 0-3.392.449a21.86 21.86 0 0 0-3.093 1.446 15.54 15.54 0 0 1-2.993 1.297c-1.846.399-2.245 0-3.642 1.297a7.775 7.775 0 0 0-1.796 3.242c-.549 1.446-.35 1.896-2.245 2.245a3.838 3.838 0 0 1-3.342-1.247c-.599 3.592-2.195.847-4.339 2.943-.799.799-.549 1.596-.799 2.693-.449 2.146-.599 1.197-2.395 1.946s-2.046 3.892-1.496 6.235c.549 2.345 2.046 3.093-.499 3.941a2.792 2.792 0 0 1-3.292-1.197c-.399-.749 0-7.583-2.693-3.941-.649.897 0 2.395 0 3.342-.699 2.096-2.495.947-3.093 2.245-.599 1.297.897 2.145.3 3.143-.599.997-2.743.449-3.742 1.047-.997.599-.599 1.147-1.496 1.496-.897.35-1.546 0-2.046 0-.499 0-1.247 0-1.097 1.796 0 2.743 1.397 1.846-1.397 3.093-.649.3-.897.847-1.696 1.147s-1.996-.449-2.495.599c-.499 1.047.897 1.596 1.047 2.145a3.97 3.97 0 0 1 0 1.646c0 .997-1.397 0-.599 1.546.35.847 2.245 1.247 2.993 1.746a7.285 7.285 0 0 0-.549 3.392c0 .897.749 1.197.947 1.896.2.699 0 1.446 0 1.996 0 .549 1.896 1.446 2.146 2.345a1.794 1.794 0 0 1-.599 1.996c-.699.549-1.746-.3-2.445 0l-.599 1.347c-1.646 1.247-3.941.399-4.989 2.096-.699.897-.35 2.145-1.197 3.043-.849.897-2.545.399-2.993 1.946-.749 2.593 3.292 1.496 4.041 3.342.3.799 0 1.796 0 2.495.35 2.046.799.599 1.496 1.596.699.997.3 1.546.947 2.295 1.696 1.946 4.989 0 7.084-.399-.499 1.347-4.989 2.593-5.288 3.991-.3 1.397 3.492 1.546 2.643 4.041 1.197.947 2.943.3 4.291.499 1.347.2 2.395.997 4.241.599-1.097 1.447-3.143 2.893-3.242 4.989 1.447.25 2.445.897 1.796 2.495a3.841 3.841 0 0 0 2.693 0c.267.377.391.837.35 1.297a4.993 4.993 0 0 0 .3-3.542l-.599-.599a4.985 4.985 0 0 1 3.342 3.242c0 .997-.599 2.993 0 3.742 1.047 1.546 6.185.649 7.733 1.047 1.546.399 2.096 1.496 3.242 1.896 1.147.399 3.792.599 3.342 2.643s-3.043 1.297-.599 2.445a3.493 3.493 0 0 0 4.341-1.347c1.297 0 1.347 1.447 1.447 2.395.847-.25 1.197-1.047 1.946-1.247s1.397 0 2.145 0 1.197-1.097 1.946-1.247 1.746.35 2.545 0 1.796-.849 2.096-.849l1.446.549c1.247 0 2.993-1.696 3.492.649 1.397.399 1.197-.997 2.245-1.247 1.047-.25 1.247.35 2.145.599a8.083 8.083 0 0 1 3.093.897c2.245 0 4.989-.399 7.134-.3l3.193-1.097c.997-.399 2.345 0 3.292 0 1.746-.649 1.496-2.046 3.492-2.545s4.339-1.996 7.084-1.047a8.36 8.36 0 0 1 1.946.799l.549 1.247h1.297c.656.496 1.358.931 2.096 1.297h3.492s2.693 0 4.091.35c0 0 .599.549 1.097.649.499.1.599-.897 1.496-.449s.3 2.295 2.595 2.495 1.496-1.047 2.893-2.046c1.397-.997 1.846 1.347 3.842 1.297a7.275 7.275 0 0 0 0-3.143l-1.746-1.946h-1.696c-.499 0 0-1.097 0-1.297s-2.245 0-2.943-1.297c-1.397-2.893 3.792-.847 4.989-.449s1.796 1.447 3.292.997c1.496-.449 1.496-2.993 3.093-.599.449-3.043 5.987.997 3.542-3.892 3.043-.699 0-2.245 0-3.292 0-2.146 1.746-1.646 2.893-1.896 2.743-.649 3.292-2.096 3.342-4.989a4.985 4.985 0 0 1 .997-3.292c.947-1.596.549-1.347 2.345-1.796h1.097c.799 0 1.047-.699 1.696-.997.649-.3 2.495-.649 2.843-1.397.301-2.595-4.839-1.946-6.136-2.245z" data-original="#539642" class=""></path><path fill="#4d873d" d="M440.27 221.548a22.343 22.343 0 0 1-4.041-2.445c-.997-.649-1.646-.549-2.195-1.946-1.546-3.842 3.242-1.696 5.538-1.696.847 0 2.096.399 2.593-.399.499-.799-.897-2.395-1.746-2.743a4.988 4.988 0 0 0 .449-3.342c-.897-2.096-1.596 0-3.043-.549a2.046 2.046 0 0 1-1.546-2.595c.449-1.496 1.097-.849 2.395-1.347.499 0 .649-.847 1.347-.947.699-.1 1.446.599 2.046.499a2.297 2.297 0 0 0 2.146-2.145c0-2.145-1.197-.847-2.345-1.247s-1.047-1.197-1.796-2.145c-.749-.947-4.989-2.046-3.193-4.989.499-.749 1.796-.549 2.145-1.546s-.399-1.446-.549-2.096c-.399-1.796-.3-2.843-2.096-3.692a11.762 11.762 0 0 0-4.589-1.297c-1.397 0-2.345 2.195-4.091.3-.897-.997 0-2.545-.749-3.392s-3.043 0-3.991 0c-.947 0-3.043.35-3.692-.35v-1.397l-.897-1.297c-.35-1.446 1.047-1.596.897-3.043-.15-1.446-2.643-1.796-3.143-3.043l-.3.449v-.649a5.39 5.39 0 0 0 .449-4.241 6.582 6.582 0 0 1-6.135-1.796c-.35-.399 0-1.047-.649-1.496a8.52 8.52 0 0 0-1.846-1.097c-1.496-1.047-1.197-1.097-1.546-2.395 0 0 .599-.649.399-1.197s-1.347-1.147-2.395-1.446c-1.047-.3-2.395 0-2.993-1.397-.599-1.397.699-2.593.449-2.993-.25-.399-2.395-.599-3.242 0-2.693-2.096 1.397-3.492 1.197-4.989-.2-1.496-3.193-2.693-4.489-2.693s-1.546.749-2.693 1.097c-2.395.749-3.892-1.596-5.887-2.395a14.606 14.606 0 0 1-3.442-1.896c-.897-.599-2.693-1.696-3.842-1.047-1.147.649-.35 2.145-.997 2.993-.649.849-2.245 0-3.642 1.247s-.897 3.392-2.593 1.846c-.947-.799 0-2.993-1.996-3.043-1.197 0-2.993 1.896-4.041 2.345-1.049.449-2.245 0-3.392.449a16.614 16.614 0 0 0-3.143 1.496c-.956.508-1.959.927-2.993 1.247-1.796.399-2.245 0-3.642 1.297a7.675 7.675 0 0 0-1.796 3.292c-.549 1.397-.35 1.846-2.195 2.195a3.787 3.787 0 0 1-3.342-.749c-.649 3.592-2.245.849-4.339 2.943-.847.799-.599 1.596-.799 2.693-.449 2.145-.649 1.197-2.395 1.946s-2.096 3.892-1.546 6.235c.549 2.345 2.046 3.093-.449 3.941a2.594 2.594 0 0 1-3.292-1.197c-.449-.749 0-7.583-2.693-3.941-.699.947 0 2.395-.25 3.392-.699 2.046-2.445.897-3.093 2.195s.897 2.145.35 3.143c-.548.997-2.743.499-3.742 1.047-.997.549-.649 1.147-1.546 1.496s-1.546-.25-2.046 0c-.499.25-1.247 0-1.097 1.846 0 2.743 1.446 1.796-1.397 3.043-.649.3-.849.897-1.696 1.147s-1.996-.449-2.495.599c-.499 1.047.947 1.596 1.097 2.195a3.672 3.672 0 0 1 0 1.596c0 1.047-1.397 0-.599 1.546.399.847 2.245 1.247 2.993 1.746a7.23 7.23 0 0 0-.499 3.392c0 .897.749 1.247.897 1.896.15.649 0 1.446 0 2.046 0 .599 1.946 1.397 2.195 2.295.22.736-.038 1.53-.649 1.996-.699.549-1.746 0-2.395 0l-.649 1.347c-1.646 1.297-3.941.449-4.989 2.096-.649.897-.35 2.145-1.147 3.093-.799.947-2.545.35-2.993 1.896-.799 2.593 3.292 1.496 4.041 3.392.3.749-.3 1.746 0 2.445.399 2.096.799.649 1.496 1.596.699.947.35 1.546.997 2.295 1.646 1.946 4.989 0 7.034-.399-.499 1.347-4.989 2.593-5.288 3.991-.3 1.397 3.492 1.546 2.693 4.041 1.147.947 2.893.3 4.241.549a9.003 9.003 0 0 0 4.241.549c-1.097 1.446-3.143 2.893-3.242 4.989 1.447 0 2.445.947 1.846 2.495a3.44 3.44 0 0 0 2.643 0c.278.355.419.797.399 1.247a4.993 4.993 0 0 0 .3-3.492l-.649-.649a4.588 4.588 0 0 1 3.342 3.292c0 .947-.599 2.943 0 3.692 1.047 1.546 6.185.649 7.733 1.097 1.546.449 2.146 1.446 3.242 1.846 1.097.399 3.842.599 3.392 2.643-.449 2.046-3.093 1.297-.649 2.445a3.59 3.59 0 0 0 4.389-1.347c1.247 0 1.297 1.446 1.397 2.395.847 0 1.197-.997 1.946-1.197s1.446 0 2.146 0c.699 0 1.197-1.047 1.996-1.247s1.696.35 2.495 0 1.846-.799 2.146-.847l.947.897c1.247 0 2.993-1.696 3.492.649 1.446.399 1.197-.997 2.245-1.247 1.047-.25 1.297.35 2.195.599.899.25 2.345 0 3.043.897h.25c2.245 0 4.739-.35 7.134-.3l3.193-1.097c1.047-.399 2.345 0 3.342 0s1.446-1.996 3.442-2.545 4.341-1.996 7.134-.997a8.744 8.744 0 0 1 1.896.749l.549 1.297h1.297c.658.482 1.358.899 2.096 1.247h3.492s2.693 0 4.091.35c0 0 .599.599 1.147.649s.599-.897 1.446-.399.3 2.245 2.593 2.445c2.295.2 1.546-1.047 2.893-2.046 2.146-1.496 1.846 1.347 3.892 1.297a8.126 8.126 0 0 0-.3-3.143l-1.696-1.946h-1.746c-.549 0 0-1.097 0-1.247s-2.245 0-2.893-1.347c-1.446-2.893 3.742-.847 4.989-.449s1.846 1.446 3.292.997 1.546-2.993 3.143-.599c.399-2.993 5.937.997 3.492-3.892 3.043-.699 0-2.245 0-3.292 0-2.145 1.696-1.646 2.843-1.896 2.743-.649 3.292-2.046 3.392-4.989a4.985 4.985 0 0 1 .997-3.292c.897-1.596.499-1.347 2.295-1.796h1.147c.799 0 .997-.699 1.646-.997.649-.3 2.495-.649 2.843-1.347 1.002-2.843-4.136-2.244-5.434-2.244z" data-original="#4d873d" class=""></path><path fill="#539642" d="M281.579 321.971a22.343 22.343 0 0 1-4.041-2.445c-1.047-.649-1.646-.599-2.245-1.996-1.496-3.792 3.292-1.646 5.588-1.646.799 0 2.096.399 2.593-.399.499-.799-.947-2.395-1.746-2.743.521-1.05.68-2.242.449-3.392-.897-2.096-1.596 0-3.093-.499a2.045 2.045 0 0 1-1.497-2.594c.449-1.546 1.097-.897 2.345-1.347 1.247-.449.699-.847 1.347-.947.649-.1 1.496.599 2.046.499a2.246 2.246 0 0 0 2.145-2.146c0-2.195-1.147-.897-2.345-1.247-1.197-.35-.997-1.197-1.746-2.146-.749-.947-4.989-2.046-3.242-4.989.499-.749 1.846-.549 2.146-1.546s-.399-1.496-.499-2.096c-.399-1.796-.3-2.843-2.096-3.742a12.542 12.542 0 0 0-4.639-1.247c-1.347 0-2.345 2.195-4.041 0-.897-.947 0-2.545-.749-3.342-.749-.799-3.093 0-3.991 0s-3.093.349-3.692-.35v-1.447l-.947-1.247c-.35-1.446 1.097-1.596.947-3.043s-2.643-1.846-3.143-3.043l-.35.399v-.599a5.438 5.438 0 0 0 .449-4.241 6.98 6.98 0 0 1-6.185-1.796c-.35-.449 0-1.047-.599-1.496a8.52 8.52 0 0 0-1.846-1.097c-1.496-1.047-1.197-1.097-1.546-2.445 0 0 .549-.599.399-1.147s-1.347-1.147-2.395-1.446c-1.047-.3-2.395 0-2.993-1.397s.699-2.643.449-2.993-2.395-.599-3.242 0c-2.693-2.096 1.347-3.492 1.197-4.989-.15-1.496-2.943-1.996-4.341-1.846-1.397.15-1.496.799-2.643 1.147-2.445.749-3.892-1.596-5.887-2.395a15.46 15.46 0 0 1-3.442-1.896c-.947-.599-2.743-1.696-3.842-1.047-1.098.649-.35 2.146-1.047 2.993-.699.847-2.195 0-3.642 1.247-1.446 1.247-.849 3.342-2.593 1.846-.947-.799 0-2.993-1.996-3.043-1.147 0-2.943 1.846-4.041 2.345-1.097.499-2.195 0-3.392.449a21.86 21.86 0 0 0-3.093 1.446 15.54 15.54 0 0 1-2.993 1.297c-1.846.399-2.245 0-3.642 1.247a8.279 8.279 0 0 0-1.796 3.292c-.549 1.446-.35 1.896-2.195 2.245a3.886 3.886 0 0 1-3.392-.749c-.599 3.592-2.195.849-4.291 2.943-.847.799-.599 1.596-.847 2.693-.449 2.146-.599 1.197-2.395 1.946s-2.046 3.892-1.496 6.235c.549 2.345 2.046 3.043-.499 3.941a2.792 2.792 0 0 1-3.292-1.197c-.399-.749 0-7.583-2.693-3.941-.649.897 0 2.395 0 3.342-.699 2.096-2.495.947-3.093 2.245-.599 1.297.897 2.145.3 3.093-.599.947-2.743.499-3.742 1.097-.997.599-.599 1.147-1.496 1.496-.897.35-1.546 0-2.046 0-.499 0-1.247 0-1.097 1.796 0 2.743 1.446 1.846-1.397 3.093-.649.3-.897.847-1.696 1.147s-1.996-.449-2.495.599c-.499 1.049.897 1.596 1.047 2.146a3.97 3.97 0 0 1 0 1.646c0 .997-1.397 0-.599 1.546.35.849 2.245 1.247 2.993 1.746a7.285 7.285 0 0 0-.549 3.392c0 .847.749 1.197.947 1.896.2.699 0 1.446 0 1.996 0 .549 1.946 1.446 2.145 2.345a1.794 1.794 0 0 1-.599 1.996c-.699.499-1.746-.3-2.445 0l-.599 1.347c-1.646 1.247-3.941.399-4.989 2.096-.699.897-.35 2.096-1.197 3.043-.849.947-2.545.399-2.993 1.946-.749 2.545 3.292 1.446 4.041 3.342.3.799-.25 1.796 0 2.495.35 2.046.799.599 1.496 1.596s.3 1.546.947 2.295c1.696 1.946 4.989 0 7.084-.399-.499 1.347-4.989 2.593-5.288 3.991-.3 1.397 3.492 1.546 2.643 3.991 1.197.997 2.943.35 4.291.549 1.347.2 2.395.997 4.241.599-1.097 1.446-3.143 2.893-3.242 4.989 1.446 0 2.445.897 1.796 2.495a3.841 3.841 0 0 0 2.693 0c.267.377.391.837.35 1.297a4.993 4.993 0 0 0 .3-3.542l-.599-.599a4.59 4.59 0 0 1 3.342 3.242c.25.997-.599 2.993 0 3.742 1.047 1.546 6.185.649 7.733 1.047 1.546.399 2.096 1.496 3.242 1.896 1.147.399 3.792.599 3.342 2.643-.449 2.044-3.043 1.297-.599 2.445a3.59 3.59 0 0 0 4.389-1.347c1.247 0 1.297 1.447 1.397 2.395.847 0 1.197-1.047 1.946-1.247s1.397 0 2.145 0 1.197-1.097 1.996-1.247 1.696.35 2.495.25 1.796-.847 2.096-.847l1.446.549c1.247 0 2.993-1.696 3.492.649 1.397.399 1.197-.997 2.245-1.247 1.047-.25 1.247.35 2.146.599.897.25 2.395 0 3.093.897 2.245 0 4.989-.399 7.134-.3l3.193-1.147c.997-.35 2.345 0 3.292 0 1.796-.649 1.496-2.046 3.492-2.545s4.339-1.996 7.084-1.047a8.36 8.36 0 0 1 1.946.799l.549 1.247h1.297c.656.496 1.358.931 2.096 1.297h3.492c1.097 0 2.693 0 4.091.3 0 0 .599.599 1.097.699s.599-.897 1.496-.449.3 2.295 2.593 2.495c2.295.2 1.496-1.047 2.893-2.046s1.846 1.347 3.842 1.297a7.214 7.214 0 0 0 0-3.143l-2.344-2.245h-1.696c-.499 0 0-1.097 0-1.297s-2.245 0-2.943-1.297c-1.397-2.893 3.792-.847 4.989-.449 1.197.399 1.846 1.446 3.292.997 1.447-.449 1.496-2.993 3.093-.649.449-2.993 5.987.997 3.542-3.842 3.043-.699 0-2.245 0-3.292 0-2.146 1.746-1.646 2.893-1.946 2.743-.599 3.292-2.046 3.342-4.989a4.985 4.985 0 0 1 .997-3.292c.947-1.596.549-1.347 2.345-1.796h1.097c.799 0 1.047-.699 1.696-.997.649-.3 2.495-.649 2.843-1.397.901-2.694-4.237-1.945-5.534-2.344z" data-original="#539642" class=""></path><g fill="#467536"><path d="M313.108 277.122a22.343 22.343 0 0 1-4.041-2.445c-.997-.649-1.646-.549-2.195-1.996-1.546-3.792 3.242-1.646 5.538-1.646.847 0 2.096.399 2.593-.399.499-.799-.897-2.395-1.746-2.743a4.988 4.988 0 0 0 .449-3.342c-.897-2.096-1.596 0-3.043-.549a1.997 1.997 0 0 1-1.548-2.545c.449-1.546 1.097-.897 2.395-1.397.499 0 .649-.847 1.347-.947.699-.1 1.446.599 1.996.499a2.295 2.295 0 0 0 2.195-2.146c0-2.145-1.197-.847-2.395-1.247-1.198-.399-.997-1.197-1.746-2.145s-4.989-2.046-3.242-4.989c.549-.749 1.846-.549 2.195-1.546s-.449-1.496-.549-2.096c-.399-1.796-.3-2.843-2.096-3.742a12.618 12.618 0 0 0-4.589-1.247c-1.397 0-2.345 2.195-4.091.3-.897-.997 0-2.545-.749-3.392s-3.093 0-3.991 0c-.899 0-3.043.35-3.692-.35v-1.397l-.897-1.297c-.349-1.446 1.047-1.596.897-3.043-.15-1.446-2.643-1.796-3.143-3.043l-.3.399v-.599a5.438 5.438 0 0 0 .449-4.241 6.582 6.582 0 0 1-6.135-1.796c-.399-.399 0-1.047-.649-1.496a8.52 8.52 0 0 0-1.846-1.097c-1.496-1.047-1.197-1.097-1.546-2.445 0 0 .549-.599.399-1.147-.15-.549-1.347-1.147-2.395-1.446-1.047-.3-2.395 0-2.993-1.397s.699-2.593.449-2.993c-.25-.399-2.395-.599-3.242 0-2.693-2.096 1.397-3.492 1.197-4.989-.2-1.496-2.943-1.946-4.339-1.796-1.397.15-1.496.749-2.643 1.097-2.395.749-3.892-1.596-5.887-2.395a14.606 14.606 0 0 1-3.442-1.896c-.947-.599-2.693-1.696-3.842-1.047-1.147.649-.35 2.145-.997 2.993-.648.847-2.245 0-3.642 1.247s-.897 3.392-2.593 1.846c-.947-.799 0-2.993-1.996-3.043-1.197 0-2.993 1.896-4.041 2.345-1.047.449-2.245 0-3.392.449a19.99 19.99 0 0 0-3.143 1.446c-.946.545-1.949.98-2.993 1.297-1.846.399-2.245 0-3.642 1.297a7.775 7.775 0 0 0-1.796 3.242c-.549 1.446-.35 1.896-2.195 2.245a3.74 3.74 0 0 1-3.342-.749c-.649 3.592-2.245.847-4.341 2.943-.847.799-.599 1.596-.847 2.693-.399 2.145-.599 1.197-2.395 1.946s-2.046 3.892-1.496 6.235c.549 2.344 2.046 3.093-.499 3.941a2.643 2.643 0 0 1-3.292-1.197c-.399-.749 0-7.583-2.643-3.941-.699.947 0 2.395 0 3.392-.699 2.046-2.445.897-3.093 2.195-.649 1.297.897 2.146.35 3.143-.548.997-2.793.449-3.792 1.047-.997.599-.599 1.147-1.496 1.496-.897.35-1.546 0-2.046 0-.499 0-1.247 0-1.097 1.846 0 2.693 1.446 1.796-1.397 3.043-.649.3-.897.897-1.696 1.147s-1.996-.449-2.495.599c-.499 1.049.947 1.596 1.097 2.195a3.672 3.672 0 0 1 0 1.596c0 .997-1.397 0-.599 1.546.35.849 2.245 1.247 2.993 1.746a7.244 7.244 0 0 0-.499 3.392c0 .897.699 1.247.897 1.896.2.649 0 1.446 0 1.996 0 .549 1.946 1.446 2.146 2.345a1.747 1.747 0 0 1-.599 1.996c-.699.549-1.746 0-2.445 0l-.599 1.347c-1.646 1.247-3.941.399-4.989 2.096-.649.897-.35 2.146-1.147 3.093-.799.947-2.593.349-3.043 1.896-.749 2.593 3.342 1.496 4.091 3.392.3.749-.3 1.746 0 2.445.35 2.046.799.649 1.496 1.596s.35 1.546.947 2.295c1.696 1.946 4.989 0 7.084-.399-.499 1.347-4.989 2.593-5.288 3.991-.3 1.397 3.492 1.546 2.693 4.041 1.147.947 2.893.3 4.241.549a9.003 9.003 0 0 0 4.241.549c-1.097 1.446-3.143 2.893-3.242 4.989 1.446 0 2.445.947 1.846 2.495a3.44 3.44 0 0 0 2.643 0c.266.361.407.799.399 1.247a4.993 4.993 0 0 0 .3-3.492l-.649-.649a4.588 4.588 0 0 1 3.342 3.242c0 .997-.599 2.993 0 3.742 1.047 1.546 6.185.649 7.733 1.097 1.546.449 2.096 1.446 3.242 1.846 1.147.399 3.842.599 3.342 2.643-.499 2.044-3.043 1.297-.599 2.445a3.59 3.59 0 0 0 4.389-1.347c1.247 0 1.297 1.446 1.397 2.395.847 0 1.197-.997 1.946-1.197s1.446 0 2.146 0c.699 0 1.197-1.097 1.996-1.247s1.696.35 2.495 0c.799-.349 1.846-.847 2.145-.847l1.397.549c1.247 0 2.993-1.696 3.492.649 1.446.399 1.197-.997 2.245-1.247 1.047-.25 1.247.35 2.145.599.899.25 2.395.25 3.093.897 2.245 0 4.989-.35 7.134-.3l3.193-1.097c1.047-.399 2.345 0 3.342 0s1.447-1.996 3.442-2.545c1.996-.549 4.339-1.996 7.134-.997a8.744 8.744 0 0 1 1.896.749l.549 1.297h1.297c.645.514 1.348.95 2.096 1.297h3.492c1.097 0 2.693 0 4.091.349.25 0 .599.599 1.097.649s.649-.897 1.496-.399.3 2.245 2.593 2.445c2.295.2 1.496-1.047 2.893-2.046 2.146-1.496 1.846 1.347 3.892 1.297a8.126 8.126 0 0 0-.3-3.143l-1.696-1.946h-1.746c-.499 0 0-1.097 0-1.247s-2.245 0-2.893-1.347c-1.446-2.893 3.742-.847 4.989-.449 1.247.399 1.846 1.446 3.292.997s1.546-2.993 3.143-.599c.399-3.043 5.937.997 3.492-3.892 3.043-.699 0-2.245 0-3.292 0-2.145 1.746-1.646 2.893-1.896 2.743-.649 3.292-2.046 3.392-4.989a4.646 4.646 0 0 1 .997-3.292c.897-1.596.499-1.347 2.295-1.796h1.097c.799 0 1.047-.699 1.696-.997.649-.3 2.495-.649 2.843-1.347.303-3.19-4.835-2.391-6.132-2.841z" fill="#467536" data-original="#467536" class=""></path><path d="M364.541 196.604a19.94 19.94 0 0 1-4.041-2.445c-1.047-.649-1.646-.549-2.245-1.946-1.496-3.842 3.292-1.696 5.588-1.646.799 0 2.096.35 2.593-.399.499-.749-.947-2.395-1.746-2.743.521-1.05.68-2.242.449-3.392-.897-2.096-1.596 0-3.093-.499a2.045 2.045 0 0 1-1.497-2.594c.449-1.546 1.097-.897 2.345-1.347 1.247-.449.699-.847 1.347-.997.649-.15 1.496.599 2.046.549a2.293 2.293 0 0 0 2.145-2.195c0-2.145-1.147-.847-2.345-1.197-1.197-.35-.997-1.247-1.746-2.145-.749-.897-4.989-2.096-3.242-4.989.499-.749 1.846-.599 2.146-1.596s-.399-1.446-.499-2.046c-.399-1.846-.3-2.893-2.096-3.742a11.685 11.685 0 0 0-4.639-1.247c-1.347 0-2.345 2.195-4.041 0-.897-.997 0-2.545-.749-3.342-.749-.799-3.093 0-3.991 0-.899 0-3.093.399-3.692-.35v-1.397l-.947-1.247c-.349-1.496 1.097-1.646.947-3.093-.15-1.446-2.643-1.796-3.143-2.993l-.35.399v-.649a5.39 5.39 0 0 0 .449-4.241 6.63 6.63 0 0 1-6.185-1.796c-.35-.399 0-.997-.599-1.496s-1.297-.699-1.846-1.097c-1.496-.997-1.197-1.097-1.546-2.395 0 0 .549-.649.399-1.197-.15-.549-1.347-1.097-2.395-1.397-1.047-.3-2.445 0-2.993-1.446-.549-1.446.699-2.593.449-2.943s-2.395-.649-3.242-.25c-2.693-2.096 1.347-3.442 1.197-4.989-.15-1.546-2.943-1.996-4.341-1.846-1.397.15-1.496.749-2.643 1.147-2.445.749-3.892-1.646-5.887-2.395a15.641 15.641 0 0 1-3.442-1.946c-.947-.599-2.743-1.696-3.842-1.047-1.097.649-.35 2.195-1.047 2.993-.699.799-2.195 0-3.642 1.247s-.847 3.392-2.593 1.896c-.947-.849 0-2.993-1.996-3.093-1.147 0-2.943 1.896-4.041 2.395-1.097.499-2.195 0-3.392.399a22.252 22.252 0 0 0-3.093 1.496c-.96.499-1.962.918-2.993 1.247-1.846.449-2.245 0-3.642 1.297a7.675 7.675 0 0 0-1.796 3.292c-.549 1.446-.35 1.846-2.245 2.195a3.991 3.991 0 0 1-3.342-.699c-.599 3.542-2.195.799-4.291 2.893-.847.847-.599 1.646-.847 2.693-.449 2.195-.599 1.197-2.395 1.946s-2.046 3.892-1.496 6.235c.549 2.345 2.046 3.093-.499 3.991a2.744 2.744 0 0 1-3.292-1.247c-.399-.749 0-7.583-2.693-3.892-.649.897 0 2.345 0 3.342-.699 2.046-2.495.947-3.093 2.245-.599 1.297.897 2.146.3 3.093-.598.947-2.743.499-3.742 1.047-.997.549-.599 1.197-1.496 1.546s-1.546-.3-2.046 0c-.499.3-1.247.3-1.097 1.846 0 2.743 1.446 1.796-1.397 3.093-.649.25-.897.847-1.696 1.147s-1.996-.449-2.495.599c-.499 1.047.897 1.546 1.047 2.145a3.8 3.8 0 0 1 0 1.596c0 1.047-1.397 0-.599 1.546.35.849 2.245 1.247 2.993 1.796a7.076 7.076 0 0 0-.549 3.342c0 .897.749 1.247.947 1.896.2.649 0 1.446 0 2.046s1.896 1.397 2.145 2.295c.239.74.001 1.551-.599 2.046-.699.499-1.746-.3-2.445 0l-.599 1.347c-1.646 1.297-3.941.449-4.989 2.096-1.047 1.646-.35 2.145-1.197 3.093-.847.947-2.545.399-2.993 1.896-.749 2.593 3.292 1.496 4.041 3.392.3.749 0 1.746 0 2.445.35 2.096.799.649 1.496 1.646.699.997.3 1.546.947 2.295 1.696 1.946 4.989 0 7.084-.399-.499 1.297-4.989 2.593-5.288 3.941-.3 1.347 3.492 1.546 2.643 4.041 1.197.947 2.943.3 4.291.549a9.003 9.003 0 0 0 4.241.549c-1.097 1.496-3.143 2.893-3.242 4.989 1.446 0 2.445.947 1.796 2.495.863.35 1.83.35 2.693 0 .263.36.388.803.35 1.247a4.65 4.65 0 0 0 .3-3.492l-.599-.649a4.987 4.987 0 0 1 3.342 3.292c0 .997-.599 2.943 0 3.692 1.047 1.596 6.185.649 7.733 1.097 1.546.449 2.096 1.446 3.242 1.896 1.147.449 3.792.549 3.342 2.643-.449 2.096-3.043 1.247-.599 2.395a3.54 3.54 0 0 0 4.389-1.297c1.247 0 1.297 1.397 1.397 2.345.847 0 1.197-.997 1.946-1.197s1.397 0 2.145 0 1.197-1.097 1.996-1.297 1.696.399 2.495 0 1.796-.799 2.096-.799l1.446.549c1.247 0 2.993-1.746 3.492.649 1.397.35 1.197-1.047 2.245-1.297 1.047-.25 1.247.35 2.145.599.899.25 2.395.25 3.093.947 2.245 0 4.989-.35 7.134-.3l3.193-1.097c.997-.35 2.345 0 3.292 0 1.746-.599 1.496-1.996 3.492-2.545s4.341-1.946 7.084-.997c.677.166 1.33.419 1.946.749l.549 1.297h1.297c.639.51 1.344.93 2.096 1.247h3.492s2.693 0 4.091.35c0 0 .599.599 1.097.699s.599-.897 1.496-.449.3 2.245 2.593 2.445c2.295.2 1.496-1.047 2.893-1.996s1.846 1.297 3.842 1.247a7.307 7.307 0 0 0 0-3.143l-1.746-1.896h-1.696c-.499 0 0-1.097 0-1.297s-2.245 0-2.943-1.347c-1.397-2.893 3.792-.849 4.989-.449 1.197.399 1.796 1.496 3.292.997s1.496-2.943 3.093-.599c.449-2.993 5.987.997 3.542-3.842 3.043-.699 0-2.245 0-3.342 0-2.145 1.746-1.646 2.893-1.896 2.743-.599 3.292-2.046 3.342-4.989a4.994 4.994 0 0 1 .997-3.242c.947-1.596.549-1.397 2.345-1.846h1.097c.799 0 1.047-.699 1.696-.997.649-.3 2.495-.649 2.843-1.347.304-2.739-4.834-1.992-6.131-2.441z" fill="#467536" data-original="#467536" class=""></path><path d="M281.579 149.112a22.343 22.343 0 0 1-4.041-2.445c-1.047-.649-1.646-.549-2.245-1.946-1.496-3.842 3.292-1.696 5.588-1.696.799 0 2.096.399 2.593-.399.499-.799-.947-2.395-1.746-2.743a4.988 4.988 0 0 0 .449-3.342c-.897-2.096-1.596 0-3.093-.549a1.994 1.994 0 0 1-1.496-2.545c.449-1.546 1.097-.897 2.345-1.397 1.247-.499.699-.847 1.347-.947.649-.1 1.496.599 2.046.499a2.245 2.245 0 0 0 2.145-2.145c0-2.145-1.147-.849-2.345-1.247-1.197-.399-.997-1.197-1.746-2.145-.749-.947-4.989-2.046-3.242-4.989.499-.699 1.846-.549 2.146-1.546s-.399-1.446-.499-2.046c-.399-1.846-.3-2.893-2.096-3.742a11.789 11.789 0 0 0-4.639-1.297c-1.347 0-2.345 2.195-4.041.3-.897-.997 0-2.545-.749-3.392-.749-.849-3.093 0-3.991 0s-3.093.35-3.692-.35v-1.397l-.947-1.297c-.35-1.446 1.097-1.596.947-3.043s-2.643-1.796-3.143-3.043l-.35.449v-.649a5.39 5.39 0 0 0 .449-4.241 6.685 6.685 0 0 1-6.185-1.796c-.35-.399 0-1.047-.599-1.496s-1.297-.699-1.846-1.097c-1.496-1.047-1.197-1.097-1.546-2.395 0 0 .549-.649.399-1.197s-1.347-1.147-2.395-1.397c-1.047-.25-2.395 0-2.993-1.446-.599-1.446.699-2.595.449-2.993-.25-.399-2.395-.599-3.242 0-2.693-2.096 1.347-3.492 1.197-4.989s-2.943-1.946-4.341-1.796-1.496.749-2.643 1.097c-2.445.749-3.892-1.596-5.887-2.395a13.666 13.666 0 0 1-3.442-1.896c-.947-.599-2.743-1.696-3.842-1.047s-.35 2.145-1.047 2.993c-.699.849-2.195 0-3.642 1.247-1.446 1.247-.849 3.392-2.593 1.896-.947-.849 0-3.043-1.996-3.093-1.147 0-2.943 1.896-4.041 2.345-1.097.449-2.195 0-3.392.449a17.638 17.638 0 0 0-3.093 1.496c-.96.499-1.962.918-2.993 1.247-1.846.399-2.245 0-3.642 1.297a7.675 7.675 0 0 0-1.796 3.292c-.549 1.397-.35 1.846-2.195 2.195a3.886 3.886 0 0 1-3.392-.749c-.599 3.592-2.195.849-4.291 2.943-.847.799-.599 1.596-.847 2.693-.449 2.145-.599 1.197-2.395 1.946s-2.046 3.892-1.496 6.235c.549 2.345 2.046 3.093-.499 3.941a2.646 2.646 0 0 1-3.435-1.477l-.007-.019c-.399-.749 0-7.583-2.693-3.941-.649.947 0 2.395 0 3.392-.699 2.046-2.495.897-3.093 2.195-.599 1.297.897 2.145.3 3.143-.599.997-2.743.499-3.742 1.047-.997.549-.599 1.147-1.496 1.496-.897.35-1.546 0-2.046 0-.499 0-1.247 0-1.097 1.846 0 2.743 1.446 1.796-1.397 3.043-.649.3-.897.897-1.696 1.147s-1.996-.449-2.495.599c-.499 1.047.897 1.596 1.047 2.195a3.8 3.8 0 0 1 0 1.596c0 1.047-1.397 0-.599 1.546.35.849 2.245 1.247 2.993 1.746a7.285 7.285 0 0 0-.549 3.392c0 .897.749 1.247.947 1.896.2.649 0 1.446 0 2.046s1.946 1.397 2.145 2.295a1.794 1.794 0 0 1-.599 1.996c-.699.549-1.746 0-2.445 0l-.599 1.347c-1.646 1.297-3.941.449-4.989 2.096s-.35 2.145-1.197 3.093c-.847.947-2.545.35-2.993 1.896-.749 2.593 3.292 1.496 4.041 3.392.3.749-.25 1.746 0 2.445.35 2.096.799.649 1.496 1.596.698.947.3 1.596.947 2.295 1.696 1.946 4.989 0 7.084-.399-.499 1.347-4.989 2.643-5.288 3.991-.3 1.348 3.492 1.546 2.643 4.041 1.197.947 2.943.3 4.291.549a9.003 9.003 0 0 0 4.241.549c-1.097 1.446-3.143 2.893-3.242 4.989 1.446 0 2.445.947 1.796 2.495.863.35 1.83.35 2.693 0 .263.36.388.803.35 1.247a4.688 4.688 0 0 0 .3-3.492l-.599-.649a4.588 4.588 0 0 1 3.342 3.292c.25.947-.599 2.943 0 3.692 1.047 1.546 6.185.649 7.733 1.097 1.546.449 2.096 1.446 3.242 1.846 1.147.399 3.792.599 3.342 2.643-.449 2.046-3.043 1.297-.599 2.445a3.59 3.59 0 0 0 4.389-1.347c1.247.25 1.297 1.446 1.397 2.395.849 0 1.197-.997 1.946-1.197s1.397 0 2.145 0c.749 0 1.197-1.047 1.996-1.247s1.696.35 2.495 0 1.796-.799 2.096-.799l1.446.499c1.247 0 2.993-1.696 3.492.649 1.397.399 1.197-.997 2.245-1.247 1.047-.25 1.247.35 2.145.599.897.25 2.395 0 3.093.897 2.245 0 4.989-.35 7.134-.3l3.193-1.097c.997-.399 2.345 0 3.292 0 1.796-.649 1.496-1.996 3.492-2.545s4.341-1.996 7.084-.997c.677.166 1.33.419 1.946.749l.549 1.297h1.297c.658.482 1.358.899 2.096 1.247h3.492c1.097 0 2.693 0 4.091.35 0 0 .599.599 1.097.699.499.1.599-.947 1.496-.449.897.499.3 2.245 2.593 2.445 2.294.2 1.496-1.047 2.893-2.046 1.397-.997 1.846 1.347 3.842 1.297a7.275 7.275 0 0 0 0-3.143l-2.195-1.996h-1.696c-.499 0 0-1.097 0-1.247s-2.245 0-2.943-1.347c-1.397-2.893 3.792-.847 4.989-.449 1.197.399 1.846 1.446 3.292.997s1.496-2.993 3.093-.599c.449-2.993 5.987.997 3.542-3.892 3.043-.699 0-2.245 0-3.292 0-2.146 1.746-1.646 2.893-1.896 2.743-.649 3.292-2.046 3.342-4.989a4.985 4.985 0 0 1 .997-3.292c.947-1.596.549-1.347 2.345-1.796h1.097c.799 0 1.047-.699 1.696-.997.649-.3 2.295-.699 2.295-1.197 1.45-2.892-3.688-2.143-4.985-2.592z" fill="#467536" data-original="#467536" class=""></path></g><path fill="#4d873d" d="M322.138 235.217a21.17 21.17 0 0 1-4.091-2.445c-.997-.649-1.646-.599-2.195-1.996-1.546-3.792 3.242-1.646 5.538-1.646.847 0 2.096.399 2.643-.399.548-.799-.947-2.395-1.746-2.743a5.237 5.237 0 0 0 .399-3.392c-.897-2.096-1.546 0-3.043-.499a2.047 2.047 0 0 1-1.546-2.595c.449-1.546 1.147-.897 2.395-1.347 1.247-.449.649-.847 1.347-.947.699-.1 1.496.599 2.046.499a2.297 2.297 0 0 0 2.146-2.145c0-2.146-1.197-.897-2.345-1.247-1.147-.35-1.047-1.197-1.796-2.145-.749-.947-4.989-2.046-3.193-4.989.499-.749 1.846-.549 2.146-1.546s-.399-1.496-.549-2.096c-.399-1.796-.3-2.843-2.096-3.742a12.326 12.326 0 0 0-4.589-1.247c-1.347 0-2.345 2.195-4.091.3-.847-.997 0-2.593-.749-3.392s-3.043 0-3.941 0c-.899 0-3.093.35-3.742-.35v-1.397l-.897-1.297c-.349-1.446 1.097-1.596.897-3.043-.2-1.446-2.643-1.796-3.093-3.043l-.449.3v-.599a5.639 5.639 0 0 0 .399-4.241 6.884 6.884 0 0 1-6.385-1.846c-.35-.399 0-1.047-.649-1.496a7.236 7.236 0 0 0-1.796-1.097c-1.496-1.047-1.197-1.097-1.596-2.445 0 0 .599-.599.399-1.147-.2-.549-1.347-1.147-2.345-1.446-.999-.3-2.445 0-2.993-1.397-.549-1.397.649-2.595.399-2.993-.25-.399-2.395-.599-3.193 0-2.693-2.096 1.347-3.492 1.147-4.989-.2-1.496-2.893-1.996-4.291-1.846-1.397.15-1.496.799-2.693 1.147-2.395.749-3.842-1.596-5.837-2.395a14.972 14.972 0 0 1-3.492-1.896c-.897-.599-2.693-1.696-3.792-1.047-1.097.649-.35 2.145-1.047 2.993-.699.847-2.195 0-3.642 1.247-1.446 1.247-.849 3.342-2.593 1.846-.947-.799 0-2.993-1.996-3.043-1.197 0-2.993 1.896-4.041 2.345-1.049.449-2.245 0-3.392.449a22.497 22.497 0 0 0-3.143 1.446c-.946.545-1.949.98-2.993 1.297-1.796.399-2.195 0-3.642 1.297a8.4 8.4 0 0 0-1.796 3.242c-.549 1.446-.3 1.896-2.195 2.245a3.787 3.787 0 0 1-3.342-.749c-.599 3.592-2.195.847-4.341 2.943-.799.799-.599 1.596-.799 2.693-.449 2.145-.649 1.197-2.395 1.946s-2.046 3.892-1.496 6.235c.549 2.345 2.046 3.093-.499 3.941a2.792 2.792 0 0 1-3.292-1.197c-.399-.749 0-7.583-2.693-3.941-.699.897 0 2.395 0 3.342-.699 2.096-2.445.947-3.093 2.245-.649 1.297.947 2.145.35 3.093-.599.947-2.743.499-3.742 1.097s-.649 1.147-1.546 1.496c-.897.35-1.496 0-2.046 0s-1.197 0-1.097 1.796c0 2.743 1.446 1.846-1.347 3.093-.699.3-.897.847-1.746 1.147s-1.996-.449-2.495.599.947 1.596 1.097 2.145a3.903 3.903 0 0 1 0 1.646c0 .997-1.347 0-.599 1.546.399.849 2.295 1.247 3.043 1.746a7.285 7.285 0 0 0-.549 3.392c0 .847.749 1.197.897 1.896.15.699 0 1.446 0 1.996 0 .549 1.946 1.446 2.195 2.345a1.745 1.745 0 0 1-.649 1.996c-.649.549-1.746-.3-2.395 0l-.649 1.347c-1.596 1.247-3.941.399-4.989 2.096-.699.897-.35 2.145-1.197 3.043-.847.897-2.545.399-2.993 1.946-.749 2.545 3.292 1.496 4.041 3.342.3.799-.3 1.796 0 2.495.35 2.046.799.599 1.496 1.596.699.997.3 1.546.947 2.295 1.696 1.946 4.989 0 7.084-.399-.499 1.347-4.989 2.593-5.338 3.991-.35 1.397 3.542 1.546 2.693 3.991 1.147.997 2.893.35 4.291.549 1.397.2 2.345.997 4.191.599-1.097 1.446-3.143 2.893-3.242 4.989 1.496 0 2.445.897 1.846 2.495a3.841 3.841 0 0 0 2.693 0c.244.388.364.84.35 1.297a5.352 5.352 0 0 0 .3-3.542l-.599-.599a4.59 4.59 0 0 1 3.292 3.242c0 .997-.549 2.993 0 3.742 1.047 1.546 6.235.649 7.733 1.047 1.496.399 2.145 1.496 3.292 1.896 1.147.399 3.792.599 3.342 2.643-.449 2.044-3.093 1.297-.649 2.445a3.54 3.54 0 0 0 4.389-1.347c1.297 0 1.297 1.446 1.397 2.395.847 0 1.247-1.047 1.996-1.197s1.397 0 2.096 0 1.197-1.097 1.996-1.247 1.746.35 2.545.25 1.796-.849 2.096-.849l1.446.549c1.197 0 2.993-1.696 3.492.649 1.397.399 1.197-.997 2.195-1.247.997-.25 1.297.35 2.195.599a8.083 8.083 0 0 1 3.093.897c2.295 0 4.989-.35 7.134-.3l3.193-1.097c1.047-.399 2.345 0 3.342 0s1.447-2.046 3.442-2.545 4.389-1.996 7.134-1.047a8.36 8.36 0 0 1 1.946.799l.549 1.247h1.297c.649.508 1.351.943 2.096 1.297h3.442s2.693 0 4.141.35c0 0 .549.549 1.097.649.549.1.599-.897 1.496-.449.897.449.3 2.295 2.545 2.495s1.546-1.047 2.893-2.046c2.145-1.496 1.846 1.347 3.892 1.297a8.187 8.187 0 0 0 0-3.143l-1.746-1.946h-1.696c-.499 0 0-1.097 0-1.297s-2.245 0-2.893-1.297c-1.447-2.893 3.742-.847 4.989-.449 1.247.399 1.796 1.446 3.292.997s1.496-2.993 3.093-.599c.449-3.043 5.987.997 3.492-3.892 3.043-.699 0-2.245 0-3.292 0-2.146 1.746-1.646 2.843-1.946 2.793-.599 3.342-1.996 3.392-4.989a4.985 4.985 0 0 1 .997-3.292c.897-1.596.549-1.347 2.295-1.796h1.147c.799 0 .997-.699 1.646-.997.649-.3 2.495-.649 2.843-1.397.602-3.192-4.536-2.393-5.833-2.842z" data-original="#4d873d" class=""></path><path fill="#4d873d" d="M204.604 228.382a25.544 25.544 0 0 1-4.041-2.445c-.997-.649-1.646-.599-2.195-1.996-1.546-3.792 3.242-1.646 5.538-1.646.847 0 2.096.399 2.593-.399.498-.799-.897-2.395-1.746-2.743.521-1.05.68-2.242.449-3.392-.897-2.096-1.596 0-3.043-.499a2.047 2.047 0 0 1-1.546-2.595c.449-1.546 1.097-.897 2.345-1.347 1.247-.449.699-.849 1.397-.947.699-.1 1.446.549 1.996.499a2.245 2.245 0 0 0 2.145-2.145c0-2.195-1.147-.897-2.345-1.247-1.197-.35-.997-1.247-1.746-2.146s-4.989-2.046-3.242-4.989c.499-.749 1.846-.599 2.145-1.596.3-.997-.399-1.446-.499-2.046-.399-1.796-.3-2.843-2.096-3.742a12.542 12.542 0 0 0-4.639-1.247c-1.347 0-2.345 2.195-4.041 0-.897-.997 0-2.545-.749-3.342-.749-.799-3.093 0-3.991 0-.899 0-3.043.399-3.692-.35v-1.397l-.897-1.247c-.399-1.446 1.047-1.596.897-3.093-.15-1.496-2.643-1.796-3.143-2.993l-.35.399v-.549a5.438 5.438 0 0 0 .449-4.241 6.98 6.98 0 0 1-6.185-1.796c-.35-.449 0-1.047-.599-1.496a8.52 8.52 0 0 0-1.846-1.097c-1.496-1.047-1.197-1.147-1.546-2.445 0 0 .549-.649.399-1.147-.15-.499-1.347-1.147-2.395-1.446-1.047-.3-2.395 0-2.993-1.397-.599-1.397.699-2.643.449-2.993s-2.395-.649-3.242-.25c-2.693-2.046 1.397-3.442 1.197-4.989-.2-1.546-2.943-1.996-4.339-1.846s-1.496.799-2.643 1.147c-2.395.749-3.892-1.596-5.887-2.395a19.349 19.349 0 0 1-3.442-1.896c-.947-.649-2.743-1.746-3.842-1.097-1.097.649-.35 2.195-.997 3.043-.649.849-2.245 0-3.692 1.247s-.849 3.342-2.595 1.846c-.947-.847 0-2.993-1.996-3.043-1.147 0-2.943 1.846-3.991 2.345-1.047.499-2.245 0-3.442.449a17.52 17.52 0 0 0-3.093 1.446 14.16 14.16 0 0 1-2.993 1.247c-1.846.449-2.245 0-3.642 1.297a7.675 7.675 0 0 0-1.796 3.292c-.549 1.446-.35 1.896-2.195 2.195a4.039 4.039 0 0 1-3.392-.699c-.599 3.592-2.195.799-4.291 2.893-.849.849-.599 1.646-.849 2.743-.399 2.146-.599 1.147-2.395 1.896s-2.046 3.941-1.496 6.285c.549 2.345 2.046 3.043-.499 3.941a2.744 2.744 0 0 1-3.292-1.247c-.399-.699 0-7.533-2.693-3.892-.649.897 0 2.345 0 3.342-.699 2.046-2.445.947-3.093 2.245-.649 1.297.897 2.145.35 3.093-.549.947-2.793.499-3.792 1.097s-.599 1.147-1.496 1.496c-.897.35-1.546 0-2.046 0-.499 0-1.247.3-1.097 1.846 0 2.743 1.446 1.846-1.397 3.093-.649.3-.897.847-1.696 1.147s-1.996-.449-2.495.599c-.499 1.047.897 1.546 1.097 2.145a3.903 3.903 0 0 1 0 1.646c0 .997-1.397 0-.599 1.496.35.847 2.245 1.297 2.993 1.796a7.14 7.14 0 0 0-.499 3.392c0 .847.699 1.197.897 1.846.2.649 0 1.496 0 2.046 0 .549 1.946 1.397 2.145 2.295.239.74.001 1.551-.599 2.046-.699.499-1.746-.3-2.445 0l-.599 1.347c-1.646 1.247-3.941.399-4.989 2.096-.699.847-.35 2.096-1.197 3.043-.849.947-2.545.399-2.993 1.896-.749 2.593 3.292 1.496 4.041 3.392.35.799-.25 1.746 0 2.445.35 2.096.799.649 1.496 1.646.699.997.35 1.546.947 2.295 1.696 1.946 4.989 0 7.084-.399-.499 1.347-4.989 2.593-5.288 3.941-.3 1.348 3.492 1.546 2.693 4.041 1.147.997 2.893.35 4.241.549a9.64 9.64 0 0 0 4.241.599c-1.097 1.446-3.143 2.893-3.242 4.989 1.446 0 2.445.897 1.796 2.445.863.35 1.83.35 2.693 0 .251.369.391.802.399 1.247a4.993 4.993 0 0 0 .3-3.492l-.649-.599a4.59 4.59 0 0 1 3.342 3.242c.25.997-.599 2.943 0 3.692 1.047 1.596 6.185.699 7.733 1.097 1.546.399 2.096 1.496 3.242 1.896 1.147.399 3.792.599 3.342 2.643-.449 2.046-3.043 1.247-.599 2.445a3.59 3.59 0 0 0 4.389-1.347c1.247 0 1.297 1.397 1.397 2.345.847 0 1.197-.997 1.946-1.197s1.446 0 2.146 0c.699 0 1.197-1.097 1.996-1.297s1.696.399 2.495.3c.799-.1 1.796-.847 2.146-.847l1.397.549c1.247 0 2.993-1.746 3.492.649 1.397.399 1.197-.997 2.245-1.297 1.047-.3 1.247.35 2.145.649.897.3 2.395 0 3.093.897 2.245 0 4.989-.399 7.134-.35l3.193-1.097c1.047-.35 2.345 0 3.342 0 1.746-.599 1.446-1.996 3.442-2.495s4.339-1.996 7.134-1.047c.668.17 1.307.441 1.896.799l.549 1.247h1.297c.656.496 1.358.931 2.096 1.297h3.492c1.097 0 2.693 0 4.091.3.25 0 .599.599 1.097.699s.649-.897 1.496-.449.3 2.295 2.593 2.495c2.295.2 1.496-1.047 2.893-2.046s1.846 1.297 3.892 1.247a8.204 8.204 0 0 0-.3-3.143l-1.746-1.896h-1.696c-.499 0 0-1.097 0-1.297s-2.245 0-2.943-1.297c-1.397-2.943 3.792-.847 4.989-.499s1.846 1.496 3.292 1.047 1.546-2.993 3.143-.649c.399-2.993 5.937.997 3.492-3.842 3.043-.699 0-2.245 0-3.342 0-2.096 1.746-1.646 2.893-1.896 2.743-.599 3.292-2.046 3.392-4.989a4.636 4.636 0 0 1 .947-3.242c.947-1.596.549-1.397 2.345-1.846h1.097c.799 0 1.047-.749 1.696-1.047.649-.3 2.495-.649 2.843-1.347.505-2.89-4.633-2.141-5.93-2.541z" data-original="#4d873d" class=""></path><path fill="#539642" d="M141.896 245.493a19.94 19.94 0 0 1-4.041-2.445c-.997-.649-1.646-.549-2.195-1.946-1.546-3.842 3.242-1.696 5.538-1.696.849 0 2.096.399 2.595-.399.499-.799-.897-2.395-1.746-2.743a4.988 4.988 0 0 0 .449-3.342c-.897-2.096-1.596 0-3.043-.549a1.997 1.997 0 0 1-1.548-2.545c.449-1.546 1.097-.897 2.395-1.397.499 0 .649-.849 1.347-.947.699-.1 1.446.599 2.046.499a2.295 2.295 0 0 0 2.145-2.145c0-2.145-1.197-.847-2.345-1.247s-1.047-1.197-1.796-2.145-4.989-2.046-3.193-4.989c.499-.749 1.796-.549 2.145-1.546.35-.997-.399-1.446-.549-2.096-.399-1.796-.3-2.843-2.096-3.742a12.618 12.618 0 0 0-4.589-1.247c-1.397 0-2.345 2.195-4.091.3-.897-.997 0-2.545-.749-3.392s-3.043 0-3.991 0-3.043.35-3.692-.35v-1.397l-.897-1.297c-.35-1.446 1.047-1.596.897-3.043-.15-1.446-2.643-1.796-3.143-3.043l-.3.449v-.649a5.438 5.438 0 0 0 .449-4.241 6.582 6.582 0 0 1-6.135-1.796c-.35-.399 0-1.047-.649-1.496s-1.297-.699-1.846-1.097c-1.496-1.047-1.197-1.097-1.546-2.445 0 0 .599-.599.399-1.147-.2-.549-1.347-1.147-2.395-1.446-1.047-.3-2.395 0-2.993-1.397-.599-1.397.699-2.593.449-2.993-.25-.399-2.395-.599-3.242 0-2.693-2.096 1.397-3.492 1.197-4.989-.2-1.496-2.893-1.946-4.291-1.796-1.397.15-1.546.749-2.693 1.097-2.395.749-3.892-1.596-5.887-2.395a15.667 15.667 0 0 1-3.442-1.896c-.897-.599-2.693-1.696-3.842-1.047-1.148.649-.35 2.145-.997 2.993-.649.847-2.245 0-3.642 1.247s-.897 3.392-2.595 1.846c-.947-.799 0-2.993-1.996-3.043-1.197 0-2.993 1.896-4.041 2.345-1.047.449-2.245 0-3.392.449a16.614 16.614 0 0 0-3.143 1.496c-.956.508-1.959.927-2.993 1.247-1.846.399-2.245 0-3.642 1.297a7.675 7.675 0 0 0-1.796 3.292c-.549 1.397-.35 1.846-2.195 2.195a3.79 3.79 0 0 1-3.442-1.047c-.649 3.592-2.245.849-4.339 2.943-.849.799-.599 1.596-.799 2.693-.449 2.146-.649 1.197-2.395 1.946s-2.096 3.892-1.546 6.235c.549 2.345 2.046 3.093-.449 3.941a2.594 2.594 0 0 1-3.292-1.197c-.449-.749 0-7.583-2.693-3.941-.699.947 0 2.395 0 3.392-.699 2.046-2.445.897-3.093 2.195-.649 1.297.897 2.145.35 3.143-.548.997-2.743.449-3.742 1.047-.997.599-.649 1.147-1.546 1.496-.897.35-1.546 0-2.046 0-.499 0-1.247 0-1.097 1.846 0 2.743 1.446 1.796-1.397 3.043-.649.3-.849.897-1.696 1.147-.849.25-1.996-.449-2.495.599-.499 1.047.947 1.596 1.097 2.195a3.703 3.703 0 0 1 0 1.596c0 1.047-1.397 0-.599 1.546.399.847 2.245 1.247 2.993 1.746a7.244 7.244 0 0 0-.499 3.392c0 .897.749 1.247.897 1.896.15.649 0 1.446 0 1.996 0 .549 1.946 1.446 2.195 2.345.22.736-.038 1.53-.649 1.996-.699.549-1.746 0-2.395 0l-.649 1.347c-1.646 1.297-3.941.399-5.238 2.096-.649.897-.35 2.145-1.147 3.093-.797.947-2.545.35-2.993 1.896-.799 2.593 3.292 1.496 4.041 3.392.3.749-.3 1.746 0 2.445.399 2.046.799.649 1.496 1.596.699.947.35 1.546.997 2.295 1.646 1.946 4.989 0 7.034-.399-.499 1.347-4.989 2.593-5.288 3.991-.3 1.397 3.492 1.546 2.693 4.041 1.147.947 2.893.3 4.241.549a9.003 9.003 0 0 0 4.241.549c-1.097 1.446-3.143 2.893-3.242 4.989 1.446.25 2.445.947 1.846 2.495a3.44 3.44 0 0 0 2.643 0c.278.355.419.797.399 1.247a4.993 4.993 0 0 0 .3-3.492l-.649-.649a4.588 4.588 0 0 1 3.342 3.292c0 .947-.599 2.943 0 3.692 1.047 1.546 6.185.649 7.733 1.097s2.145 1.446 3.242 1.846c1.097.399 3.842.599 3.392 2.643-.449 2.046-3.093 1.297-.649 2.445a3.59 3.59 0 0 0 4.389-1.347c1.247 0 1.297 1.447 1.397 2.395.849 0 1.197-.997 1.946-1.197s1.446 0 2.145 0 1.197-1.047 1.996-1.247 1.696.35 2.495.25 1.846-.847 2.145-.847l1.397.549c1.247 0 2.993-1.696 3.492.649 1.446.399 1.197-.997 2.245-1.247 1.047-.25 1.297.35 2.195.599.899.25 2.345 0 3.043.897 2.245 0 4.989-.35 7.134-.3l3.193-1.097c1.047-.399 2.345 0 3.342 0s1.446-1.996 3.442-2.545 4.339-1.996 7.134-.997a8.744 8.744 0 0 1 1.896.749l.549 1.297h1.297c.658.482 1.358.899 2.096 1.247h3.492c1.097 0 2.693 0 4.091.35.25 0 .599.599 1.147.699.549.1.599-.947 1.496-.449.897.499.25 2.245 2.545 2.445s1.546-1.047 2.893-2.046c2.145-1.496 1.846 1.347 3.892 1.297a8.126 8.126 0 0 0-.3-3.143l-1.696-1.946h-1.746c-.549 0 0-1.097 0-1.247s-2.245 0-2.893-1.347c-1.446-2.893 3.742-.849 4.989-.449 1.247.399 1.846 1.446 3.292.997s1.546-2.993 3.143-.599c.399-2.993 5.937.997 3.492-3.892 3.043-.699 0-2.245 0-3.292 0-2.145 1.696-1.646 2.843-1.896 2.793-.649 3.292-2.046 3.392-4.989a4.985 4.985 0 0 1 .997-3.292c.897-1.596.499-1.347 2.295-1.796h1.147c.799 0 .997-.699 1.646-.997.649-.3 2.495-.649 2.843-1.347.805-3.094-4.334-2.295-5.73-2.745z" data-original="#539642" class=""></path><path fill="#467536" d="M236.281 123.57a22.343 22.343 0 0 1-4.041-2.445c-.997-.649-1.646-.599-2.195-1.996-1.546-3.792 3.242-1.646 5.538-1.646.847 0 2.096.399 2.593-.399.498-.799-.897-2.395-1.746-2.743.521-1.05.68-2.242.449-3.392-.897-2.046-1.596 0-3.043-.499a1.997 1.997 0 0 1-1.546-2.595c.449-1.496 1.097-.849 2.345-1.347 1.247-.499.699-.849 1.397-.947.699-.1 1.446.599 1.996.499a2.245 2.245 0 0 0 2.145-2.146c0-2.145-1.147-.849-2.345-1.247-1.197-.399-.997-1.197-1.746-2.145-.749-.947-4.989-2.046-3.242-4.989.499-.749 1.846-.549 2.195-1.546.35-.997-.449-1.496-.549-2.096-.399-1.796-.3-2.843-2.096-3.742a12.542 12.542 0 0 0-4.639-1.247c-1.347 0-2.295 2.195-4.041.3-.897-.997 0-2.545-.749-3.392-.749-.849-3.093 0-3.991 0-.899 0-3.043.35-3.692-.35v-1.397l-.897-1.297c-.399-1.446 1.047-1.596.897-3.043-.15-1.446-2.643-1.796-3.143-3.043l-.35.399v-.599a5.438 5.438 0 0 0 .449-4.241 6.836 6.836 0 0 1-6.185-1.796c-.35-.399 0-1.047-.599-1.496a8.52 8.52 0 0 0-1.846-1.097c-1.496-1.047-1.197-1.097-1.546-2.445 0 0 .549-.599.399-1.147-.15-.549-1.347-1.147-2.395-1.446-1.047-.3-2.395 0-2.993-1.397s.699-2.595.449-2.993c-.25-.399-2.395-.599-3.242 0-2.693-2.096 1.397-3.492 1.197-4.989-.2-1.496-2.943-1.946-4.341-1.796-1.397.15-1.496.749-2.643 1.097-2.395.749-3.892-1.596-5.887-2.395a14.606 14.606 0 0 1-3.442-1.896c-.947-.599-2.693-1.696-3.842-1.047-1.147.649-.35 2.145-.997 2.993-.649.849-2.245 0-3.692 1.247-1.446 1.247-.847 3.392-2.545 1.846-1.696-1.546 0-2.993-2.046-3.043-1.147 0-2.943 1.896-3.991 2.345-1.047.449-2.245 0-3.442.449a21.86 21.86 0 0 0-3.093 1.446c-.946.545-1.949.979-2.993 1.297-1.846.399-2.245 0-3.642 1.297a7.775 7.775 0 0 0-1.796 3.242c-.549 1.446-.35 1.896-2.195 2.245a3.74 3.74 0 0 1-3.342-.749c-.649 3.592-2.245.849-4.339 2.943-.847.799-.599 1.596-.847 2.693-.399 2.146-.599 1.197-2.395 1.946s-2.046 3.892-1.496 6.235c.549 2.345 2.046 3.093-.499 3.941a2.643 2.643 0 0 1-3.292-1.197c-.399-.749 0-7.583-2.693-3.941-.649.947 0 2.395 0 3.392-.699 2.046-2.445.897-3.093 2.195s.897 2.146.35 3.143c-.549.997-2.793.449-3.792 1.047s-.599 1.147-1.496 1.496-1.546-.25-2.046 0c-.499.25-1.247 0-1.097 1.846 0 2.693 1.446 1.796-1.397 3.043-.649.3-.897.847-1.696 1.147s-1.996-.449-2.495.599c-.499 1.049.897 1.596 1.097 2.195a3.672 3.672 0 0 1 0 1.596c0 .997-1.397 0-.599 1.546.35.847 2.245 1.247 2.993 1.746a7.244 7.244 0 0 0-.499 3.392c0 .897.699 1.247.897 1.896s0 1.446 0 1.996 1.946 1.446 2.145 2.345a1.794 1.794 0 0 1-.599 1.996c-.699.549-1.746-.3-2.445 0l-.599 1.347c-1.646 1.247-3.941.399-5.238 2.096-.699.897-.35 2.145-1.147 3.043-.799.897-2.595.399-3.043 1.946-.749 2.595 3.292 1.496 4.041 3.392.35.749-.25 1.746 0 2.445.35 2.046.799.599 1.496 1.596.699.997.35 1.546.947 2.295 1.696 1.946 4.989 0 7.084-.399-.499 1.347-4.989 2.593-5.288 3.991-.3 1.397 3.492 1.546 2.693 4.041 1.147.947 2.893.3 4.241.549a9.003 9.003 0 0 0 4.241.549c-1.097 1.446-3.143 2.893-3.242 4.989 1.446 0 2.445.947 1.796 2.495a3.389 3.389 0 0 0 2.693 0c.258.383.396.834.399 1.297a5.346 5.346 0 0 0 .3-3.542l-.649-.599a4.59 4.59 0 0 1 3.342 3.242c.25.997-.599 2.993 0 3.742 1.047 1.546 6.185.649 7.733 1.097 1.546.449 2.096 1.446 3.242 1.846 1.147.399 3.842.599 3.342 2.643-.499 2.046-3.043 1.297-.599 2.445a3.59 3.59 0 0 0 4.389-1.347c1.247 0 1.297 1.446 1.397 2.395.847 0 1.197-.997 1.946-1.197s1.446 0 2.145 0 1.197-1.097 1.996-1.247 1.696.35 2.495.25 1.796-.849 2.145-.849l1.397.549c1.247 0 2.993-1.696 3.492.649 1.397.399 1.197-.997 2.245-1.247 1.047-.25 1.247.35 2.145.599s2.395 0 3.093.897c2.245 0 4.739-.35 7.134-.3l3.193-1.097c1.047-.399 2.345 0 3.342 0s1.446-2.046 3.442-2.545 4.339-1.996 7.134-.997a8.744 8.744 0 0 1 1.896.749l.549 1.297h1.197c.645.514 1.348.95 2.096 1.297h3.492c1.097 0 2.693 0 4.091.35 0 0 .599.549 1.097.649.499.1.649-.897 1.496-.399s.3 2.245 2.593 2.445c2.294.2 1.496-1.047 2.893-2.046 1.397-.997 1.846 1.347 3.892 1.297a8.126 8.126 0 0 0-.3-3.143l-1.397-2.643h-1.746c-.499 0 0-1.097 0-1.247s-2.245 0-2.943-1.347c-1.397-2.893 3.792-.847 4.989-.449 1.197.399 1.846 1.446 3.292.997s1.546-2.993 3.143-.599c.399-3.043 5.937.997 3.492-3.892 3.043-.699 0-2.245 0-3.292 0-2.145 1.746-1.646 2.893-1.896 2.743-.649 3.292-2.046 3.392-4.989a4.646 4.646 0 0 1 .997-3.292c.897-1.596.499-1.347 2.295-1.796h.15c.799-.25 1.047-.699 1.696-.997.649-.3 2.495-.649 2.843-1.397 1.504-2.742-3.634-1.945-4.933-2.393z" data-original="#467536" class=""></path><path fill="#539642" d="M294.75 183.734a22.343 22.343 0 0 1-4.041-2.445c-.997-.649-1.646-.599-2.195-1.996-1.546-3.792 3.242-1.646 5.538-1.646.847 0 2.096.399 2.593-.399.498-.799-.897-2.395-1.746-2.743.521-1.05.68-2.242.449-3.392-.897-2.046-1.596 0-3.043-.499a1.997 1.997 0 0 1-1.546-2.595c.449-1.546 1.097-.897 2.345-1.347 1.248-.449.699-.849 1.397-.947.699-.1 1.446.599 1.996.499a2.245 2.245 0 0 0 2.145-2.146c0-2.145-1.147-.897-2.345-1.247-1.197-.35-.997-1.197-1.746-2.145-.749-.947-4.989-2.046-3.242-4.989.499-.749 1.846-.549 2.195-1.546.35-.997-.449-1.496-.549-2.096-.399-1.796-.3-2.843-2.096-3.742a12.542 12.542 0 0 0-4.639-1.247c-1.347 0-2.345 2.195-4.041.25-.897-.947 0-2.495-.749-3.342s-3.093 0-3.991 0c-.899 0-3.043.35-3.692-.35v-1.397l-.897-1.297c-.399-1.446 1.047-1.596.897-3.043-.15-1.446-2.643-1.796-3.143-3.043l-.35.399v-.599a5.438 5.438 0 0 0 .449-4.241 6.88 6.88 0 0 1-6.185-1.796c-.35-.399 0-1.047-.599-1.496a8.52 8.52 0 0 0-1.846-1.097c-1.496-1.047-1.197-1.097-1.546-2.445 0 0 .549-.599.399-1.147-.15-.549-1.347-1.147-2.395-1.446-1.047-.3-2.395 0-2.993-1.397s.699-2.595.449-2.993c-.25-.399-2.395-.599-3.242 0-2.693-2.096 1.397-3.492 1.197-4.989-.2-1.496-2.943-1.996-4.339-1.796-1.397.2-1.496.749-2.643 1.097-2.395.749-3.892-1.596-5.887-2.395a14.606 14.606 0 0 1-3.442-1.896c-.947-.599-2.693-1.696-3.842-1.047-1.147.649-.35 2.145-.997 2.993-.649.849-2.245 0-3.692 1.247-1.446 1.247-.847 3.342-2.545 1.846-1.696-1.496 0-2.993-1.996-3.043-1.197 0-2.993 1.896-4.041 2.345-1.047.449-2.245 0-3.442.449a21.86 21.86 0 0 0-3.093 1.446c-.946.545-1.949.979-2.993 1.297-1.846.399-2.245 0-3.642 1.297a7.775 7.775 0 0 0-1.796 3.242c-.549 1.446-.35 1.896-2.195 2.245a3.886 3.886 0 0 1-3.392-.749c-.599 3.592-2.195.849-4.291 2.943-.849.799-.599 1.596-.849 2.693-.399 2.145-.599 1.197-2.395 1.946s-2.046 3.892-1.496 6.235c.549 2.344 2.046 3.093-.499 3.941a2.643 2.643 0 0 1-3.641-1.696c-.399-.749 0-7.583-2.693-3.941-.649.897 0 2.395 0 3.392-.699 2.046-2.445.897-3.093 2.195-.649 1.297.897 2.145.35 3.143-.549.997-2.793.449-3.792 1.047-.997.599-.599 1.147-1.496 1.496-.897.35-1.546 0-2.046 0-.499 0-1.247.25-1.097 1.846 0 2.693 1.446 1.796-1.397 3.043-.649.3-.897.849-1.696 1.147-.799.3-1.996-.449-2.495.599-.499 1.047.947 1.596 1.097 2.145a3.903 3.903 0 0 1 0 1.646c0 .997-1.397 0-.599 1.546.35.847 2.245 1.247 2.993 1.746a7.23 7.23 0 0 0-.499 3.392c0 .897.699 1.197.897 1.896s0 1.446 0 1.996 1.946 1.446 2.145 2.345a1.794 1.794 0 0 1-.599 1.996c-.699.549-1.746-.3-2.445 0l-.599 1.347c-1.646 1.247-3.941.399-4.989 2.096-.649.897-.35 2.145-1.197 3.043-.849.897-2.545.399-2.993 1.946-.749 2.593 3.292 1.496 4.041 3.342.35.799-.25 1.796 0 2.495.35 2.046.799.599 1.496 1.596.699.997.35 1.546.947 2.295 1.696 1.946 4.989 0 7.084-.399-.499 1.347-4.989 2.593-5.288 3.991-.3 1.397 3.492 1.546 2.693 4.041 1.147.947 2.893.3 4.241.499 1.347.2 2.395.997 4.241.599-1.097 1.446-3.143 2.893-3.242 4.989 1.446 0 2.445.897 1.796 2.495a3.841 3.841 0 0 0 2.693 0c.258.383.396.834.399 1.297a5.352 5.352 0 0 0 .3-3.542l-.649-.599a4.588 4.588 0 0 1 3.342 3.242c0 .997-.599 2.993 0 3.742 1.047 1.546 6.185.649 7.733 1.047 1.546.399 2.096 1.496 3.242 1.896 1.147.399 3.842.599 3.342 2.643-.499 2.044-3.043 1.297-.599 2.445a3.59 3.59 0 0 0 4.389-1.347c1.247 0 1.297 1.446 1.397 2.395.849 0 1.197-.997 1.946-1.197s1.446 0 2.145 0 1.197-1.097 1.996-1.247 1.696.35 2.495 0 1.796-.849 2.145-.849l1.397.549c1.247 0 2.993-1.696 3.492.649 1.397.399 1.197-.997 2.245-1.247 1.047-.25 1.247.35 2.145.599.897.25 2.395.25 3.093.897h.25c2.245 0 4.739-.35 7.134-.3l3.193-1.097c1.047-.399 2.345 0 3.342 0s1.446-2.046 3.442-2.545 4.339-1.996 7.134-1.047c.652.214 1.286.482 1.896.799l.549 1.247h1.297c.645.514 1.348.95 2.096 1.297h3.492c1.097 0 2.693 0 4.091.35 0 0 .599.549 1.097.649.499.1.649-.897 1.496-.449.849.449.3 2.295 2.593 2.495 2.295.2 1.496-1.047 2.893-2.046 1.397-.997 1.846 1.347 3.892 1.297a8.126 8.126 0 0 0-.3-3.143l-1.696-1.946h-1.746c-.499 0 0-1.097 0-1.247s-2.245 0-2.943-1.347c-1.397-2.893 3.792-.847 4.989-.449 1.197.399 1.846 1.446 3.292.997s1.546-2.993 3.143-.599c.399-3.043 5.937.997 3.492-3.892 3.043-.699 0-2.245 0-3.292 0-2.145 1.746-1.646 2.893-1.896 2.743-.649 3.292-2.046 3.392-4.989a4.642 4.642 0 0 1 .997-3.292c.897-1.596.499-1.347 2.295-1.796h1.097c.799-.25 1.047-.699 1.696-.997.649-.3 2.495-.649 2.843-1.397.606-2.641-4.532-1.842-5.829-2.291z" data-original="#539642" class=""></path><g fill="#4d873d"><path d="M386.343 149.112a21.17 21.17 0 0 1-4.091-2.445c-.997-.649-1.646-.549-2.195-1.946-1.546-3.842 3.242-1.696 5.538-1.696.849 0 2.096.399 2.643-.399s-.947-2.395-1.796-2.743a4.988 4.988 0 0 0 .449-3.342c-.897-2.096-1.596 0-3.043-.549a1.997 1.997 0 0 1-1.548-2.545c.449-1.546 1.097-.897 2.395-1.397.549 0 .649-.847 1.347-.947.699-.1 1.496.599 2.046.499a2.245 2.245 0 0 0 2.145-2.145c0-2.145-1.197-.849-2.345-1.247s-1.047-1.197-1.796-2.145c-.749-.947-4.989-2.046-3.193-4.989.499-.699 1.796-.549 2.146-1.546s-.399-1.446-.549-2.046c-.399-1.846-.3-2.893-2.096-3.742a11.538 11.538 0 0 0-4.589-1.297c-1.347 0-2.345 2.195-4.091.3-.847-.997 0-2.545-.749-3.392-.749-.849-3.043 0-3.941 0-.899 0-3.093.35-3.742-.35v-1.397l-.897-1.297c-.349-1.446 1.047-1.596.897-3.043-.15-1.446-2.643-1.796-3.093-3.043l-.35.449v-.649a5.39 5.39 0 0 0 .449-4.241 6.582 6.582 0 0 1-6.135-1.796c-.35-.399 0-1.047-.649-1.496s-1.297-.699-1.796-1.097c-1.546-1.047-1.197-1.097-1.596-2.395 0 0 .599-.649.399-1.197-.2-.549-1.347-1.147-2.345-1.397-.997-.25-2.445 0-2.993-1.446-.549-1.446.649-2.595.399-2.993-.25-.399-2.395-.599-3.193 0-2.743-2.096 1.347-3.492 1.147-4.989-.2-1.496-2.893-1.946-4.291-1.796s-1.546.749-2.693 1.097c-2.395.749-3.842-1.596-5.837-2.395a14.972 14.972 0 0 1-3.492-1.896c-.897-.599-2.693-1.696-3.792-1.047-1.097.649-.35 2.145-1.047 2.993-.699.849-2.245 0-3.642 1.247s-.897 3.392-2.593 1.896c-.947-.849 0-3.043-1.996-3.093-1.197 0-2.993 1.896-4.041 2.345-1.047.449-2.245 0-3.392.449a18.174 18.174 0 0 0-3.143 1.496c-.956.508-1.959.927-2.993 1.247-1.796.399-2.195 0-3.642 1.297a7.675 7.675 0 0 0-1.796 3.292c-.549 1.397-.3 1.846-2.195 2.195a3.787 3.787 0 0 1-3.342-.749c-.599 3.592-2.195.849-4.339 2.943-.799.799-.599 1.596-.799 2.693-.449 2.145-.649 1.197-2.395 1.946s-2.046 3.892-1.496 6.235c.549 2.344 1.996 3.093-.499 3.941a2.643 2.643 0 0 1-3.292-1.197c-.399-.749 0-7.583-2.693-3.941-.699.947 0 2.395-.25 3.392-.699 2.046-2.445.897-3.093 2.195-.649 1.297.947 2.145.35 3.143-.599.997-2.743.499-3.742 1.047-.997.549-.649 1.147-1.546 1.496s-1.496 0-2.046 0c-.549 0-1.197 0-1.097 1.846 0 2.743 1.446 1.796-1.347 3.043-.699.3-.897.897-1.746 1.147s-1.996-.449-2.495.599c-.499 1.047.947 1.596 1.097 2.195a3.703 3.703 0 0 1 0 1.596c0 1.047-1.347 0-.599 1.546.399.847 2.245 1.247 2.993 1.746a7.23 7.23 0 0 0-.499 3.392c0 .897.749 1.247.897 1.896s0 1.446 0 2.046c0 .599 1.946 1.397 2.195 2.295.22.736-.038 1.53-.649 1.996-.649.549-1.746 0-2.395 0l-.649 1.347c-1.596 1.297-3.941.449-4.989 2.096-1.047 1.646-.399 2.145-1.197 3.093-.799.947-2.545.35-2.993 1.896-.749 2.595 3.292 1.496 4.041 3.392.3.749-.3 1.746 0 2.445.35 2.096.799.649 1.496 1.596.699.947.3 1.596.947 2.295 1.696 1.946 4.989 0 7.034-.399-.449 1.347-4.989 2.643-5.288 3.991-.3 1.347 3.492 1.546 2.693 4.041 1.147.947 2.893.3 4.291.549 1.33.526 2.77.714 4.191.549-1.097 1.446-3.143 2.893-3.242 4.989 1.496 0 2.445.947 1.846 2.495.863.35 1.83.35 2.693 0 .242.37.364.805.35 1.247a4.993 4.993 0 0 0 .3-3.492l-.649-.649a4.588 4.588 0 0 1 3.342 3.292c0 .947-.599 2.943 0 3.692 1.047 1.546 6.185.649 7.733 1.097 1.546.449 2.145 1.446 3.292 1.846 1.147.399 3.792.599 3.342 2.643-.449 2.044-3.093 1.297-.649 2.445a3.54 3.54 0 0 0 4.389-1.347c1.247.25 1.297 1.446 1.397 2.395.847 0 1.247-.997 1.946-1.197s1.446 0 2.145 0 1.197-1.047 1.996-1.247 1.746.35 2.495 0 1.846-.799 2.146-.799l1.446.499c1.197 0 2.993-1.696 3.492.649 1.397.399 1.197-.997 2.195-1.247.997-.25 1.297.35 2.195.599.897.25 2.345 0 3.043.897 2.295 0 4.989-.35 7.134-.3l3.193-1.097c1.047-.399 2.345 0 3.342 0s1.446-1.996 3.442-2.545 4.389-1.996 7.134-.997a9.189 9.189 0 0 1 1.946.749l.549 1.297h1.247c.668.492 1.388.91 2.145 1.247h3.442c1.097 0 2.693 0 4.141.35 0 0 .549.599 1.097.699s.599-.947 1.496-.449c.897.499 0 2.245 2.545 2.445s1.546-1.047 2.893-2.046c2.145-1.496 1.846 1.347 3.892 1.297a8.153 8.153 0 0 0-.25-3.143l-1.746-1.946h-1.696c-.499 0 0-1.097 0-1.247s-2.245 0-2.893-1.347c-1.446-2.893 3.742-.847 4.989-.449s1.796 1.446 3.292.997 1.496-2.993 3.093-.599c.399-2.993 5.987.997 3.492-3.892 3.043-.699 0-2.245 0-3.292 0-2.146 1.746-1.646 2.843-1.896 2.793-.649 3.342-2.046 3.392-4.989a4.985 4.985 0 0 1 .997-3.292c.897-1.596.549-1.347 2.295-1.796h1.147c.799 0 .997-.699 1.646-.997.649-.3 2.495-.649 2.843-1.347.806-3.091-4.333-2.342-5.679-2.791zM391.929 325.363a21.17 21.17 0 0 1-4.091-2.445c-.997-.649-1.646-.599-2.195-1.996-1.546-3.792 3.242-1.646 5.538-1.646.849 0 2.096.399 2.593-.399.499-.799-.897-2.395-1.746-2.743a4.994 4.994 0 0 0 .449-3.392c-.897-2.096-1.596 0-3.043-.499a2.096 2.096 0 0 1-1.546-2.595c.449-1.546 1.097-.897 2.395-1.347.549 0 .649-.849 1.347-.947.699-.1 1.446.599 2.046.499a2.297 2.297 0 0 0 2.146-2.146c0-2.195-1.197-.897-2.345-1.247-1.147-.35-1.047-1.197-1.796-2.145-.749-.947-4.989-2.046-3.193-4.989.499-.749 1.796-.549 2.146-1.546s-.399-1.496-.549-2.096c-.399-1.796-.3-2.843-2.096-3.742a12.326 12.326 0 0 0-4.589-1.247c-1.347 0-2.345 2.195-4.091 0-.849-.947 0-2.545-.749-3.342-.749-.799-3.043 0-3.991 0-.949 0-3.043.399-3.692-.3v-1.397l-.897-1.297c-.35-1.446 1.047-1.596.897-3.093-.15-1.496-2.643-1.796-3.093-2.993l-.35.399v-.599a5.438 5.438 0 0 0 .449-4.241 6.731 6.731 0 0 1-6.135-1.796c-.35-.399 0-1.047-.649-1.496a9.594 9.594 0 0 0-1.796-1.097c-1.546-1.047-1.197-1.097-1.596-2.445 0 0 .599-.599.399-1.147-.2-.549-1.347-1.147-2.345-1.447-.997-.3-2.445 0-2.993-1.397-.549-1.397.649-2.643.399-2.993s-2.395-.599-3.193 0c-2.743-2.096 1.347-3.492 1.147-4.989-.2-1.496-2.893-1.996-4.291-1.846-1.397.15-1.546.799-2.693 1.147-2.395.749-3.842-1.596-5.837-2.395a16.984 16.984 0 0 1-3.492-1.896c-.897-.599-2.693-1.696-3.842-1.047-1.147.649-.3 2.145-.997 2.993-.699.847-2.245 0-3.642 1.247s-.897 3.342-2.593 1.846c-.947-.799 0-2.993-1.996-3.043-1.197 0-2.993 1.846-4.041 2.345-1.049.499-2.245 0-3.392.449a22.497 22.497 0 0 0-3.143 1.446c-.946.545-1.949.98-2.993 1.297-1.796.399-2.195 0-3.642 1.247a8.279 8.279 0 0 0-1.796 3.292c-.549 1.447-.3 1.896-2.195 2.245a3.787 3.787 0 0 1-3.342-.749c-.599 3.592-2.195.799-4.339 2.943-.799.799-.599 1.596-.799 2.693-.449 2.145-.649 1.197-2.395 1.946s-2.046 3.892-1.546 6.235c.499 2.345 2.046 3.043-.449 3.941a2.692 2.692 0 0 1-3.292-1.197c-.399-.749 0-7.583-2.693-3.941-.699.897 0 2.395 0 3.342-.699 2.096-2.445.947-3.093 2.245-.649 1.297.947 2.146.35 3.143-.599.997-2.743.449-3.742 1.047-.997.599-.649 1.147-1.546 1.496s-1.546-.25-2.046 0c-.499.25-1.197 0-1.097 1.796 0 2.743 1.446 1.846-1.397 3.093-.649.3-.847.847-1.696 1.147-.847.3-1.996-.449-2.495.599-.499 1.047.947 1.596 1.097 2.146a3.903 3.903 0 0 1 0 1.646c0 .997-1.347 0-.599 1.546.399.847 2.245 1.247 2.993 1.746a7.244 7.244 0 0 0-.499 3.392c0 .897.749 1.197.897 1.896.15.699 0 1.447 0 1.996s1.946 1.447 2.195 2.345c.22.736-.038 1.53-.649 1.996-.649.499-1.746-.3-2.395 0l-.649 1.347c-1.596 1.247-3.941.399-4.989 2.096-.649.897-.35 2.096-1.147 3.043s-2.545.399-2.993 1.946c-.799 2.545 3.292 1.447 4.041 3.342.3.799-.3 1.746 0 2.495.35 2.046.799.599 1.496 1.596.699.997.3 1.546.947 2.295 1.646 1.946 4.989 0 7.034-.399-.449 1.347-4.989 2.593-5.288 3.991-.3 1.397 3.492 1.546 2.693 4.041 1.147.947 2.893.3 4.291.499 1.397.2 2.345.997 4.191.599-1.097 1.446-3.143 2.893-3.242 4.989 1.446 0 2.445.897 1.846 2.495a3.841 3.841 0 0 0 2.693 0c.244.388.364.84.35 1.297a5.34 5.34 0 0 0 .3-3.542l-.649-.599a4.588 4.588 0 0 1 3.342 3.242c0 .997-.599 2.993 0 3.742 1.047 1.546 6.185.649 7.733 1.047s2.145 1.496 3.292 1.896c1.147.399 3.792.599 3.342 2.643-.449 2.046-3.093 1.297-.649 2.445a3.54 3.54 0 0 0 4.389-1.347c1.247 0 1.297 1.446 1.397 2.395.849 0 1.247-1.047 1.946-1.247s1.447.25 2.146 0 1.197-1.097 1.996-1.247 1.696.35 2.495 0 1.846-.849 2.146-.849l1.446.549c1.197 0 2.993-1.696 3.442.649 1.446.399 1.247-.997 2.245-1.247.997-.25 1.297.35 2.195.599.897.25 2.345 0 3.043.897 2.295 0 4.989-.399 7.134-.3l3.193-1.147c1.047-.35 2.345 0 3.342 0 1.746-.649 1.447-2.046 3.442-2.545 1.996-.499 4.341-1.996 7.134-1.047a8.005 8.005 0 0 1 1.896.799l.599 1.247h1.247a9.458 9.458 0 0 0 2.145 1.297h3.442c1.097 0 2.693 0 4.141.3 0 0 .549.599 1.097.699s.599-.897 1.496-.449c.897.449 0 2.295 2.545 2.495s1.546-1.047 2.893-2.046c2.146-1.496 1.846 1.347 3.892 1.297a8.153 8.153 0 0 0-.25-3.143l-1.746-1.946h-1.696c-.499 0 0-1.097 0-1.297s-2.245 0-2.893-1.297c-1.447-2.893 3.742-.847 4.989-.449 1.247.399 1.796 1.446 3.292.997s1.496-2.993 3.093-.649c.399-2.993 5.987 1.047 3.492-3.842 3.043-.699 0-2.245 0-3.292 0-2.146 1.746-1.646 2.843-1.896 2.793-.649 3.342-2.096 3.392-4.989a4.985 4.985 0 0 1 .997-3.292c.897-1.596.499-1.347 2.295-1.796h1.147c.799-.25.997-.699 1.646-.997.649-.3 2.495-.649 2.843-1.397.454-2.84-4.735-2.041-5.983-2.49zM185.347 308.252a18.878 18.878 0 0 1-4.091-2.445c-.997-.649-1.646-.549-2.195-1.946-1.546-3.842 3.242-1.696 5.538-1.646.849 0 2.096.35 2.643-.449.549-.799-.947-2.395-1.746-2.693.529-1.049.67-2.25.399-3.392-.847-2.096-1.546 0-3.043-.549a1.945 1.945 0 0 1-1.497-2.544c.399-1.546 1.097-.897 2.345-1.397 1.247-.499.649-.847 1.347-.947s1.496.599 2.046.549a2.294 2.294 0 0 0 2.145-2.195c0-2.145-1.197-.849-2.345-1.197-1.147-.35-.997-1.247-1.796-2.195-.799-.949-4.989-2.046-3.193-4.989.499-.699 1.846-.549 2.145-1.546.3-.997-.399-1.447-.549-2.046-.399-1.846-.3-2.893-2.096-3.742a12.416 12.416 0 0 0-4.589-1.447c-1.347 0-2.345 2.195-4.041.3-.897-.997 0-2.545-.749-3.392s-3.093 0-3.991 0-3.093.399-3.742-.35v-1.397l-.897-1.297c-.35-1.446 1.097-1.596.947-3.043s-2.693-1.796-3.143-2.993l-.35.399v-.649a5.639 5.639 0 0 0 .399-4.241 6.582 6.582 0 0 1-6.135-1.796c-.35-.399 0-.997-.599-1.496s-1.297-.699-1.846-1.097c-1.496-.997-1.197-1.097-1.596-2.395 0 0 .599-.649.399-1.197-.2-.549-1.347-1.147-2.345-1.397-.997-.25-2.445 0-2.993-1.446s.649-2.593.449-2.943-2.395-.649-3.242-.25c-2.693-2.096 1.347-3.492 1.197-4.989-.15-1.496-2.943-1.996-4.339-1.846-1.397.15-1.496.749-2.643 1.097-2.445.749-3.892-1.596-5.887-2.395a14.972 14.972 0 0 1-3.492-1.896c-.897-.599-2.693-1.696-3.792-1.047-1.097.649-.35 2.145-1.047 2.993-.698.847-2.195 0-3.642 1.247s-.849 3.392-2.595 1.896c-.947-.847 0-2.993-1.996-3.093-1.147 0-2.993 1.896-4.041 2.395-1.047.499-2.245 0-3.392.399a22.719 22.719 0 0 0-3.143 1.496c-.94.508-1.925.925-2.943 1.247-1.846.449-2.245 0-3.642 1.297a7.188 7.188 0 0 0-1.796 3.292c-.549 1.446-.35 1.846-2.245 2.195a3.787 3.787 0 0 1-3.342-.749c-.599 3.592-2.195.847-4.339 2.943-.799.799-.599 1.646-.799 2.693-.449 2.195-.599 1.197-2.395 1.946s-2.046 3.892-1.496 6.235c.549 2.345 2.046 3.093-.499 3.941a2.643 2.643 0 0 1-3.292-1.197c-.399-.749 0-7.583-2.693-3.892-.649.897 0 2.345 0 3.342-.699 2.046-2.495.947-3.143 2.195-.649 1.247.947 2.195.35 3.143s-2.743.499-3.742 1.047-.649 1.197-1.546 1.496c-.897.3-1.496 0-2.046 0s-1.197 0-1.097 1.846c0 2.743 1.446 1.796-1.347 3.043-.649.3-.897.897-1.746 1.147s-1.996-.449-2.445.649.897 1.546 1.047 2.146a3.703 3.703 0 0 1 0 1.596c0 1.047-1.347 0-.599 1.546.399.849 2.295 1.247 3.043 1.746a7.285 7.285 0 0 0-.549 3.392c0 .897.749 1.247.897 1.896.15.649 0 1.446 0 2.046 0 .599 1.946 1.397 2.195 2.295a1.745 1.745 0 0 1-.649 1.996c-.649.549-1.746 0-2.395 0l-.599 1.347c-1.646 1.297-3.941.449-5.238 2.096-1.297 1.646-.35 2.146-1.197 3.093-.849.947-2.545.35-2.993 1.896-.749 2.593 3.292 1.496 4.041 3.392.3.749-.3 1.746 0 2.445.35 2.096.799.649 1.496 1.646.698.997.3 1.546.947 2.245 1.696 1.946 4.989 0 7.084-.399-.499 1.347-4.989 2.643-5.338 3.991-.35 1.347 3.542 1.546 2.693 4.041 1.147.947 2.893.3 4.291.549 1.397.25 2.345.947 4.191.549-1.097 1.496-3.093 2.893-3.242 4.989 1.496 0 2.445.947 1.846 2.495.863.349 1.83.349 2.693 0 .242.37.364.805.35 1.247a4.993 4.993 0 0 0 .3-3.492l-.549-.699a4.592 4.592 0 0 1 3.292 3.292c0 .947-.549 2.943 0 3.692 1.047 1.596 6.235.649 7.733 1.097 1.496.449 2.145 1.447 3.292 1.846s3.792.599 3.342 2.643c-.449 2.044-3.093 1.297-.649 2.445a3.54 3.54 0 0 0 4.389-1.297c1.297 0 1.297 1.397 1.446 2.345.799 0 1.197-.997 1.946-1.197s1.397 0 2.096 0 1.197-1.097 1.996-1.297 1.746.399 2.545.25c.799-.15 1.796-.799 2.096-.799l1.446.549c1.197 0 2.993-1.746 3.492.649 1.397.35 1.197-1.047 2.195-1.297.997-.25 1.297.35 2.195.599.899.25 2.345 0 3.093.947 2.295 0 4.989-.35 7.134-.3l3.193-1.097c1.047-.35 2.345 0 3.342 0s1.496-1.996 3.442-2.545 4.389-1.946 7.134-.997c.677.166 1.33.419 1.946.749l.549 1.297h1.297c.639.51 1.344.93 2.096 1.247h3.492c1.097 0 2.693 0 4.091.35 0 0 .599.599 1.097.699.499.1.599-.947 1.496-.449s.3 2.245 2.595 2.445 1.496-1.047 2.843-1.996c2.146-1.546 1.846 1.297 3.892 1.247a8.153 8.153 0 0 0-.25-3.143l-1.746-1.896h-1.696c-.499 0 0-1.097 0-1.297s-2.245 0-2.893-1.347c-1.446-2.893 3.742-.847 4.989-.449 1.247.399 1.796 1.447 3.292.997 1.496-.449 1.496-2.943 3.093-.599.449-2.993 5.987.997 3.492-3.892 3.043-.649 0-2.195 0-3.292 0-2.145 1.746-1.646 2.893-1.896 2.743-.649 3.292-2.046 3.342-4.989a4.994 4.994 0 0 1 .997-3.242c.947-1.596.549-1.397 2.345-1.846h1.097c.799 0 .997-.699 1.646-.997.649-.3 2.545-.649 2.843-1.347.704-2.892-4.285-2.143-5.732-2.592zM176.817 179.393a22.343 22.343 0 0 1-4.041-2.445c-1.047-.649-1.646-.599-2.245-1.996-1.496-3.792 3.292-1.646 5.588-1.646.799 0 2.096.399 2.593-.399.499-.799-.947-2.395-1.746-2.743.521-1.05.68-2.242.449-3.392-.897-2.046-1.596 0-3.093-.499a2.045 2.045 0 0 1-1.497-2.594c.449-1.546 1.097-.897 2.345-1.347 1.247-.449.699-.847 1.347-.947.649-.1 1.496.599 2.046.499a2.246 2.246 0 0 0 2.146-2.145c0-2.145-1.197-.897-2.345-1.247-1.147-.35-.997-1.197-1.746-2.145-.749-.947-4.989-2.046-3.242-4.989.499-.749 1.846-.549 2.146-1.546s-.399-1.496-.499-2.096c-.399-1.796-.3-2.843-2.096-3.742a12.542 12.542 0 0 0-4.639-1.247c-1.347 0-2.345 2.195-4.041 0-.897-.947 0-2.545-.749-3.342-.749-.799-3.093-.25-3.991 0-.897.25-3.093.35-3.692-.35v-1.397l-.947-1.297c-.35-1.446 1.097-1.596.947-3.043-.15-1.446-2.643-1.796-3.143-3.043l-.35.399v-.599c.699-1.3.861-2.822.449-4.241a6.787 6.787 0 0 1-5.887-1.696c-.35-.399 0-1.047-.599-1.496a8.52 8.52 0 0 0-1.846-1.097c-1.496-1.047-1.197-1.097-1.546-2.445 0 0 .549-.599.399-1.147-.15-.549-1.347-1.147-2.395-1.446-1.047-.3-2.445 0-2.993-1.397s.699-2.595.449-2.993c-.25-.399-2.395-.599-3.242 0-2.693-2.096 1.347-3.492 1.197-4.989-.15-1.496-2.943-1.996-4.339-1.796-1.397.2-1.496.749-2.643 1.097-2.445.749-3.892-1.596-5.887-2.395a13.666 13.666 0 0 1-3.442-1.896c-.947-.599-2.743-1.696-3.842-1.047-1.097.649-.35 2.145-1.047 2.993-.699.847-2.195 0-3.642 1.247s-.847 3.342-2.593 1.846c-.947-.799 0-2.993-1.996-3.043-1.147 0-2.943 1.896-4.041 2.345s-2.195 0-3.392.449a21.86 21.86 0 0 0-3.093 1.446 15.54 15.54 0 0 1-2.993 1.297c-1.846.399-2.245 0-3.642 1.297a7.775 7.775 0 0 0-1.796 3.242c-.549 1.446-.35 1.896-2.245 2.245a3.836 3.836 0 0 1-3.342-.749c-.599 3.592-2.195.849-4.339 2.943-.799.799-.549 1.596-.799 2.693-.449 2.146-.599 1.197-2.395 1.946s-2.046 3.892-1.496 6.235c.549 2.345 2.046 3.093-.499 3.941a2.643 2.643 0 0 1-3.292-1.197c-.399-.749 0-7.583-2.693-3.941-.649.897 0 2.395 0 3.392-.699 2.046-2.495.897-3.093 2.195-.599 1.297.897 2.145.3 3.143-.598.997-2.743.449-3.742 1.047-.997.599-.599 1.147-1.496 1.496s-1.546 0-2.046 0c-.499 0-1.247 0-1.097 1.846 0 2.693 1.397 1.796-1.397 3.043-.649.3-.897.847-1.696 1.147s-1.996-.449-2.495.599c-.499 1.047.897 1.596 1.047 2.145a3.97 3.97 0 0 1 0 1.646c0 .997-1.397 0-.599 1.546.35.849 2.245 1.247 2.993 1.746a7.285 7.285 0 0 0-.549 3.392c0 .897.749 1.197.947 1.896.2.699 0 1.446 0 1.996s1.896 1.446 2.145 2.345a1.794 1.794 0 0 1-.599 1.996c-.699.549-1.746-.3-2.445 0l-.599 1.347c-1.646 1.247-3.941.399-4.989 2.096-.699.897-.35 2.145-1.197 3.043-.849.897-2.545.399-2.993 1.946-.749 2.593 3.292 1.496 4.041 3.342.3.799-.25 1.796 0 2.495.35 2.046.799.599 1.496 1.596.698.997.3 1.546.947 2.295 1.696 1.946 4.989 0 7.084-.399-.499 1.347-4.989 2.593-5.288 3.991-.3 1.397 3.492 1.546 2.643 4.041 1.197.947 2.943.3 4.291.499 1.347.2 2.395.997 4.191.599-1.047 1.446-3.093 2.893-3.193 4.989 1.446.25 2.445.897 1.796 2.495a3.841 3.841 0 0 0 2.693 0c.267.377.391.837.35 1.297a4.99 4.99 0 0 0-.2-3.991l-.599-.599a4.985 4.985 0 0 1 3.342 3.242c0 .997-.599 2.993 0 3.742.997 1.546 6.185.649 7.733 1.047s2.096 1.496 3.242 1.896 3.792.599 3.342 2.643c-.449 2.044-3.043 1.297-.599 2.445a3.49 3.49 0 0 0 4.339-1.347c1.297 0 1.347 1.446 1.446 2.395.799 0 1.197-.997 1.946-1.197s1.397 0 2.145 0 1.197-1.097 1.946-1.247 1.746.35 2.545.25 1.796-.847 2.096-.847l1.446.549c1.247 0 2.993-1.696 3.492.649 1.397.399 1.197-.997 2.245-1.247 1.047-.25 1.247.35 2.145.599a8.083 8.083 0 0 1 3.093.897h.25c2.245 0 4.739-.35 7.134-.3l3.193-1.097c.997-.399 2.345 0 3.292 0 1.746-.649 1.496-2.046 3.492-2.545s4.339-1.996 7.084-1.047c.673.206 1.323.473 1.946.799l.549 1.247h1.297a9.041 9.041 0 0 0 2.096 1.297h3.492c1.097 0 2.693 0 4.091.35 0 0 .599.549 1.097.649.499.1.599-.897 1.496-.449.897.449.3 2.295 2.595 2.495s1.496-1.047 2.893-2.046c1.397-.997 1.846 1.347 3.842 1.297a7.284 7.284 0 0 0-.25-3.143l-1.746-1.946h-1.696c-.499 0 0-1.097 0-1.297s-2.245 0-2.943-1.297c-1.397-2.893 3.792-.849 4.989-.449 1.197.399 1.796 1.446 3.292.997s1.496-2.993 3.093-.599c.449-3.043 5.987.997 3.542-3.892 3.043-.699 0-2.245 0-3.292 0-2.145 1.746-1.646 2.893-1.896 2.743-.649 3.292-2.046 3.342-4.989a4.985 4.985 0 0 1 .997-3.292c.947-1.596.549-1.347 2.345-1.796h1.097c.799 0 1.047-.699 1.696-.997.649-.3 2.495-.649 2.843-1.397.703-2.793-4.436-1.996-5.932-2.445z" fill="#4d873d" data-original="#4d873d" class=""></path><path d="M316.5 78.372a18.878 18.878 0 0 1-4.091-2.445c-.997-.649-1.646-.549-2.195-1.946-1.546-3.842 3.242-1.696 5.538-1.696.847 0 2.096.399 2.643-.399.549-.799-.947-2.395-1.746-2.743a4.979 4.979 0 0 0 .399-3.342c-.847-2.096-1.546 0-3.043-.549a1.997 1.997 0 0 1-1.548-2.545c.449-1.546 1.147-.897 2.395-1.397 1.247-.499.649-.849 1.347-.947.699-.1 1.496.599 2.046.499a2.246 2.246 0 0 0 2.146-2.145c0-2.145-1.197-.849-2.345-1.197-1.147-.35-.997-1.247-1.796-2.195-.799-.947-4.989-2.046-3.193-4.989.499-.699 1.846-.549 2.146-1.546s-.399-1.446-.549-2.046c-.399-1.846-.3-2.893-2.096-3.742a12.42 12.42 0 0 0-4.589-1.297c-1.347 0-2.345 2.195-4.041.3-.897-.997 0-2.545-.749-3.392-.749-.849-3.093 0-3.991 0-.899 0-3.093.399-3.742-.35v-1.397l-.897-1.297c-.35-1.446 1.097-1.596.947-3.043-.15-1.446-2.693-1.796-3.143-3.043l-.35.449v-.651a5.639 5.639 0 0 0 .399-4.241 6.582 6.582 0 0 1-6.135-1.796c-.35-.399 0-1.047-.649-1.496s-1.247-.699-1.796-1.097c-1.496-.997-1.197-1.097-1.596-2.395 0 0 .599-.649.399-1.197s-1.347-1.147-2.345-1.397c-.997-.25-2.445 0-2.993-1.446-.549-1.446.649-2.593.399-2.993-.25-.399-2.395-.599-3.193 0-2.693-2.096 1.347-3.492 1.197-4.989-.15-1.496-2.943-1.946-4.341-1.796-1.397.15-1.496.749-2.693 1.097-2.395.749-3.842-1.596-5.837-2.395a14.972 14.972 0 0 1-3.492-1.896c-.897-.599-2.693-1.696-3.792-1.047-1.097.649-.35 2.145-1.047 2.993-.699.849-2.195 0-3.642 1.247s-.847 3.392-2.593 1.896c-.947-.849 0-3.043-1.996-3.093-1.197 0-2.993 1.896-4.041 2.395-1.047.499-2.245 0-3.392.399a22.719 22.719 0 0 0-3.143 1.496c-.952.517-1.955.935-2.993 1.247-1.796.449-2.195 0-3.592 1.297a7.188 7.188 0 0 0-1.796 3.292c-.549 1.446-.35 1.846-2.245 2.195a3.787 3.787 0 0 1-3.342-.749c-.599 3.592-2.195.849-4.341 2.943-.799.799-.599 1.646-.799 2.693-.449 2.145-.599 1.197-2.395 1.946s-2.046 3.892-1.496 6.235c.549 2.344 2.046 3.093-.499 3.941a2.643 2.643 0 0 1-3.292-1.197c-.399-.749 0-7.583-2.693-3.941-.699.947 0 2.395 0 3.392-.649 2.046-2.445.897-3.093 2.195-.649 1.297.947 2.145.35 3.143-.599.997-2.743.499-3.742 1.047-.997.549-.649 1.147-1.546 1.496-.897.35-1.496 0-2.046 0s-1.197 0-1.097 1.846c0 2.743 1.446 1.796-1.347 3.043-.699.3-.897.897-1.746 1.147-.847.25-1.996-.449-2.495.599-.499 1.047.947 1.596 1.097 2.195a3.703 3.703 0 0 1 0 1.596c0 1.047-1.347 0-.599 1.546.399.847 2.295 1.247 3.043 1.746a7.285 7.285 0 0 0-.549 3.392c0 .897.749 1.247.897 1.896.15.649 0 1.446 0 2.046s1.946 1.397 2.195 2.295a1.745 1.745 0 0 1-.649 1.996c-.649.549-1.746 0-2.395 0l-.599 1.347c-1.646 1.297-3.941.449-4.989 2.096s-.35 2.146-1.197 3.093c-.849.947-2.545.35-2.993 1.896-.749 2.593 3.292 1.496 4.041 3.392.3.749-.3 1.746 0 2.445.35 2.096.799.649 1.496 1.646.699.997.3 1.546.947 2.245 1.696 1.946 4.989 0 7.084-.399-.499 1.347-4.989 2.643-5.338 3.991-.35 1.348 3.542 1.546 2.693 4.041 1.147.947 2.893.3 4.291.549 1.398.25 2.345.947 4.191.549-1.097 1.446-3.143 2.893-3.242 4.989 1.496 0 2.445.947 1.846 2.495.863.35 1.83.35 2.693 0 .242.37.364.805.35 1.247a4.993 4.993 0 0 0 .3-3.492l-.599-.649a4.592 4.592 0 0 1 3.292 3.292c0 .947-.549 2.943 0 3.692 1.047 1.596 6.235.649 7.733 1.097 1.496.449 2.145 1.446 3.292 1.846 1.147.399 3.792.599 3.342 2.643-.449 2.046-3.093 1.297-.649 2.445a3.54 3.54 0 0 0 4.389-1.297c1.297 0 1.297 1.397 1.446 2.345.799 0 1.197-.997 1.946-1.197s1.397 0 2.096 0 1.197-1.097 1.996-1.297 1.746.35 2.545 0 1.796-.799 2.096-.799l1.446.549c1.197 0 2.993-1.746 3.492.649 1.397.35 1.197-1.047 2.195-1.297.997-.25 1.297.35 2.195.599a8.083 8.083 0 0 1 3.093.897c2.295 0 4.989-.35 7.134-.3l3.193-1.097c1.047-.399 2.345 0 3.342 0s1.496-1.996 3.442-2.545 4.389-1.946 7.134-.997c.677.166 1.33.419 1.946.749l.549 1.297h1.297c.499 0 1.496 1.147 2.096 1.247s2.395 0 3.442 0 2.743 0 4.141.35c0 0 .599.599 1.097.699s.599-.947 1.496-.449.3 2.245 2.545 2.445 1.546-1.047 2.893-2.046c2.146-1.496 1.846 1.347 3.892 1.297a8.187 8.187 0 0 0 0-3.143l-2.495-2.245h-1.696c-.499 0 0-1.097 0-1.247s-2.245 0-2.893-1.347c-1.446-2.893 3.742-.847 4.989-.449 1.247.399 1.796 1.446 3.292.997s1.496-2.943 3.093-.599c.449-2.993 5.987.997 3.492-3.892 3.043-.699 0-2.195 0-3.292 0-2.145 1.746-1.646 2.843-1.896 2.793-.649 3.342-2.046 3.392-4.989a4.994 4.994 0 0 1 .997-3.242c.947-1.646.549-1.397 2.345-1.846h1.097c.799 0 .997-.699 1.646-.997.649-.3 2.495-.649 2.843-1.347 1.055-2.739-4.083-1.99-5.48-2.44z" fill="#4d873d" data-original="#4d873d" class=""></path></g></g></svg>