<svg xmlns="http://www.w3.org/2000/svg" version="1.1" xmlns:xlink="http://www.w3.org/1999/xlink" xmlns:svgjs="http://svgjs.com/svgjs" width="512" height="512" x="0" y="0" viewBox="0 0 512 512" style="enable-background:new 0 0 512 512" xml:space="preserve" class="">
<g>
<path fill="#ECF7FF" d="M462.768 169.961c-6.134 1.259-14.944-2.362-20.13-4.807-8.777-32.512-36.24-57.976-75.16-57.976-2.09 0-8.347-2.517-8.347-2.517-8.412.562-16.471 2.254-23.991 4.913-21.053 7.429-37.886 22.393-46.386 41.194-.683 1.51-2.436 2.19-3.97 1.565-7.365-3-15.538-4.68-24.153-4.68-32.354 0-58.582 23.548-58.582 52.597 0 3.045.304 6.025.858 8.928-14.519 8.78-24.07 23.675-24.07 40.573 0 26.998 24.377 48.884 54.447 48.884 5.463 0 10.735-.731 15.71-2.075 10.49 14.197 28.445 23.561 48.843 23.561 16.17 0 30.81-5.883 41.411-15.394 5.307 4.208 10.406 6.685 15.883 8.141-.473.239-.94.479-1.447.711 9.148 4.193 19.388 6.542 30.205 6.542 23.572-3.9 45.286-16.684 57.802-35.062 11.976-7.516 20.38-3.256 20.38-3.256 28.46-8.517 43.385-28.752 43.385-57.167-.002-28.738-13.729-46.418-42.688-54.675z" data-original="#f0f5f7" class=""></path>
<path fill="#D6F1F8" d="M512 225.281c0 28.42-20.52 52.52-48.98 61.04 0 0-8.41-4.26-20.38 3.26-12.52 18.37-34.15 30.54-58.75 30.54-.43 0-.86 0-1.28-.02 33.71-24.3 55.08-60.4 55.08-100.71 0-49.01-31.6-91.81-78.56-114.73 2.05-.14 4.12-.21 6.21-.21 38.92 0 71.53 24.17 80.31 56.68 5.18 2.45 10.27 4.09 16.41 2.84 28.96 8.25 49.94 32.57 49.94 61.31z" data-original="#dde8ed" class=""></path>
<path fill="#C6E8F5" d="M470.896 253.531c0 11.507-2.781 22.695-7.881 32.78-6.428 1.937-13.279 3.06-20.377 3.266 7.624-10.044 12.805-23.344 12.805-36.046a7.722 7.722 0 0 1 7.726-7.726 7.73 7.73 0 0 1 7.727 7.726zM462.922 174.053c0 7.716-1.484 15.309-4.399 22.561a7.734 7.734 0 0 1-7.17 4.852 7.708 7.708 0 0 1-2.884-.567c-3.956-1.587-5.872-6.088-4.286-10.044 2.174-5.419 3.286-11.064 3.286-16.802 0-3.997-.752-9.045-1.823-12.919a78.438 78.438 0 0 1 16.411 2.833c.577 3.338.865 6.707.865 10.086z" data-original="#c5e1e8" class=""></path>
<path fill="#F2FAFD" d="M335.139 268.849c-.833-.167-4.023-2.177-4.868-2.315-2.472-5.963-4.394-12.909-4.394-12.909-8.212-20.565-22.899-37.741-46.4-37.741-5.522 0-8.798-.139-13.835 1.365-1.21.361-2.751-1.143-3.732-1.787a4.07 4.07 0 0 1-1.573-1.983c-11.538-30.524-42.402-52.364-78.675-52.364a85.983 85.983 0 0 0-33.141 6.521c-24.798 10.235-43.61 31.589-48.892 57.381 4.442 6.387 1.908 10.85-1.504 15.504-50.874-5.468-98.583 31.845-98.121 78.5 0 43.606 39.714 78.955 88.698 78.955 14.839 0 28.823-3.255 41.112-8.995 4.208-6.423 6.047-7.825 13.887-8.035 16.684 16.234 42.17 26.605 70.734 26.605 6.603 0 13.043-.555 19.247-1.608 20.243-9.493 39.654-19.176 52.572-32.646 6.101-1.658 12.786 2.499 15.881 9.888 2.048.749 14.808 3.025 20.966 3.025 36.953 0 59.623-22.753 59.623-57.666 0-30.389-17.341-53.627-47.585-59.695z" data-original="#dde8ed" class=""></path>
<path fill="#C6E8F5" d="M392.3 327.231c0 34.91-29.94 63.22-66.9 63.22-6.15 0-12.13-.79-17.79-2.27h-.01c-2.14-.56-4.23-1.22-6.28-1.97-3.1-7.39-8.14-8.84-14.24-7.18-12.92 13.46-31.73 23.23-53.4 26.9 32.85-27.6 53.4-66.98 53.4-110.71 0-29.28-9.22-56.61-25.17-79.76.98.64 2.23.85 3.44.49a55.396 55.396 0 0 1 15.91-2.31c23.5 0 43.6 14.52 51.81 35.09 0 0-1.25 8.27 1.22 14.23.84.14 4.03 2.15 4.87 2.31 30.24 6.07 53.14 31.57 53.14 61.96zM136.448 243.477a7.716 7.716 0 0 1-7.077 4.636 7.738 7.738 0 0 1-3.101-.659c-8.592-3.76-18.584-6.047-28.145-6.933a72.824 72.824 0 0 1 1.504-15.504c.237 0 .484.01.721.031 11.208 1.051 22.015 3.832 32.121 8.262 3.915 1.709 5.697 6.262 3.977 10.167z" data-original="#c5e1e8" class=""></path>
<path fill="#a4d4dc" d="M319.099 351.636c-2.565 12.074-8.231 23.128-17.781 34.573a68.322 68.322 0 0 1-14.237-7.18c9.086-10.312 14.721-20.305 16.905-30.596a7.723 7.723 0 1 1 15.113 3.203z" data-original="#a4d4dc"></path>
<path fill="#C6E8F5" d="M143.7 380.944a89.984 89.984 0 0 1-13.887 8.035c-8.52-8.86-14.814-19.203-18.327-30.092-1.308-4.069.917-8.417 4.976-9.725s8.417.917 9.725 4.976c3.06 9.509 9.591 19.183 17.513 26.806z" data-original="#c5e1e8" class=""></path>
<path fill="#a4d4dc" d="M339.156 265.275c-14.38-3.813-28.197-.477-42.86 4.753-3.293 1.174-7.084.028-8.858-2.984a7.64 7.64 0 0 1-.306-.574c-1.865-3.832-.258-8.458 3.575-10.322 8.239-3.637 13.25-5.726 25.425-7.355l.007.012c4.192-.464 10.428-.882 16.929-.074a55.337 55.337 0 0 1 3.461 13.186 4.18 4.18 0 0 0 2.627 3.358z" data-original="#a4d4dc"></path>
</g></svg>