<svg height="16" viewBox="0 0 16 16" width="16" xmlns="http://www.w3.org/2000/svg"><g id="color" fill="none" fill-rule="evenodd"><g id="Artboard" transform="translate(-152 -56)"><g id="Group" transform="translate(9 8)"><g id="plant_027-flower-weed-nature-grass-park-green" transform="translate(145 48)"><path id="trunk" d="m3 15.5006155c0 .2832581-.22385763.4993845-.5.4993845-.26806641 0-.5-.223582-.5-.4993845v-7.00847917c0-.27179939.23193359-.49213633.5-.49213633.27614237 0 .5.21638977.5.49213633z" fill="#009688"/><path id="trunk" d="m7 15.5006155c0 .2832581-.22385763.4993845-.5.4993845-.26806641 0-.5-.223582-.5-.4993845v-12.00411014c0-.27421234.23193359-.49650536.5-.49650536.27614237 0 .5.22306448.5.49650536z" fill="#009688"/><path id="Path" d="m.00129833 5.7080298s1.31645888.11793292 2.08889535.98907538c.15578633.17569352.2930531.35539091.40980632.53299599.11675322-.17760508.25401999-.35730247.40980632-.53299599.51495764-.58076164 1.21125609-.91045343 2.08889535-.98907538-1 .98907538 1 4.26064552-2.49870167 4.26064552s-1.5-3.27157014-2.49870167-4.26064552z" fill="#ff6070"/><path id="trunk" d="m11 15.5006155c0 .2832581-.2238576.4993845-.5.4993845-.2680664 0-.5-.223582-.5-.4993845v-5.0084792c0-.2717994.2319336-.4921363.5-.4921363.2761424 0 .5.2163898.5.4921363z" fill="#009688"/><path id="Path" d="m4.00129833.7080298s1.31645888.11793292 2.08889535.98907538c.15578633.17569352.2930531.35539091.40980632.53299599.11675322-.17760508.25401999-.35730247.40980632-.53299599.51495764-.58076164 1.21125609-.91045343 2.08889535-.98907538-1 .98907538 1 4.26064552-2.49870167 4.26064552s-1.5-3.27157014-2.49870167-4.26064552z" fill="#f9a660"/><path id="Path" d="m8.00129833 7.7080298s1.31645888.11793292 2.08889537.98907538c.1557863.17569352.2930531.35539091.4098063.53299599.1167532-.17760508.25402-.35730247.4098063-.53299599.5149577-.58076164 1.2112561-.91045343 2.0888954-.98907538-1 .98907538 1 4.2606455-2.4987017 4.2606455-3.49870167 0-1.5-3.27157012-2.49870167-4.2606455z" fill="#ffbf00"/></g></g></g></g></svg>