<svg xmlns="http://www.w3.org/2000/svg" version="1.1" xmlns:xlink="http://www.w3.org/1999/xlink" xmlns:svgjs="http://svgjs.com/svgjs" width="512" height="512" x="0" y="0" viewBox="0 0 16 16" style="enable-background:new 0 0 512 512" xml:space="preserve" class=""><g transform="matrix(1.0899999999999992,0,0,1.0899999999999992,0.1749998176097787,-0.7518599921464819)"><g fill="none" fill-rule="evenodd"><g fill="#009688"><path d="M8 9.5c0-1.961.57-3.1 1.681-3.534a.5.5 0 0 0-.362-.932C7.763 5.64 7 7.167 7 9.5a.5.5 0 0 0 1 0zM3 15.5c0-1.961-.57-3.1-1.681-3.534a.5.5 0 1 1 .362-.932C3.237 11.64 4 13.167 4 15.5a.5.5 0 0 1-1 0zM12 15.5c0-1.961.57-3.1 1.681-3.534a.5.5 0 1 0-.362-.932C11.763 11.64 11 13.167 11 15.5a.5.5 0 0 0 1 0z" fill="#009688" data-original="#009688" class=""></path></g><path fill="#107476" d="M4 15.5c0 .284-.224.5-.5.5a.505.505 0 0 1-.5-.5V8.493C3 8.22 3.232 8 3.5 8c.276 0 .5.216.5.492zM8 15.5c0 .284-.224.5-.5.5a.505.505 0 0 1-.5-.5V3.498a.499.499 0 0 1 1 0z" data-original="#107476" class=""></path><path fill="#ff6070" d="M1.001 5.708s1.317.118 2.09.99c.155.175.292.354.409.532.117-.178.254-.357.41-.533.515-.58 1.211-.91 2.089-.989-1 .99 1 4.26-2.499 4.26S2 6.699 1.001 5.709z" data-original="#ff6070" class=""></path><path fill="#107476" d="M12 15.5c0 .284-.224.5-.5.5a.505.505 0 0 1-.5-.5v-5.008c0-.272.232-.492.5-.492.276 0 .5.216.5.492z" data-original="#107476" class=""></path><path fill="#f9a660" d="M5.001.708s1.317.118 2.09.99c.155.175.292.354.409.532.117-.178.254-.357.41-.533.515-.58 1.211-.91 2.089-.989-1 .99 1 4.26-2.499 4.26S6 1.699 5.001.709z" data-original="#f9a660" class=""></path><path fill="#ffbf00" d="M9.001 6.708s1.317.118 2.09.99c.155.175.292.354.409.532.117-.178.254-.357.41-.533.515-.58 1.211-.91 2.089-.989-1 .99 1 4.26-2.499 4.26s-1.5-3.27-2.499-4.26z" data-original="#ffbf00"></path></g></g></svg>