<svg xmlns="http://www.w3.org/2000/svg" version="1.1" xmlns:xlink="http://www.w3.org/1999/xlink" xmlns:svgjs="http://svgjs.com/svgjs" width="512" height="512" x="0" y="0" viewBox="0 0 16 16" style="enable-background:new 0 0 512 512" xml:space="preserve" class=""><g transform="matrix(1.079999999999999,0,0,1.079999999999999,-1.27125716686248538,1.16000000000000814)"><g fill="none" fill-rule="evenodd"><path fill="#107476" d="M9 15.5c0 .284-.224.5-.5.5a.505.505 0 0 1-.5-.5V.507C8 .226 8.232 0 8.5 0c.276 0 .5.217.5.506z" data-original="#107476" class=""></path><g fill="#30ad63"><path d="M6.99 3.158a.5.5 0 1 0-.73.684l2.228 2.377 2.366-2.365a.5.5 0 1 0-.708-.708L8.512 4.781z" fill="#30ad63" data-original="#30ad63" class=""></path><path d="M6.99 5.158a.5.5 0 1 0-.73.684l2.228 2.377 2.366-2.365a.5.5 0 1 0-.708-.708L8.512 6.781z" fill="#30ad63" data-original="#30ad63" class=""></path><path d="M8.512 8.781 6.99 7.158a.5.5 0 1 0-.73.684l2.228 2.377 2.366-2.365a.5.5 0 1 0-.708-.708zM8.512 2.781 6.99 1.158a.5.5 0 1 0-.73.684l2.228 2.377 2.366-2.365a.5.5 0 1 0-.708-.708z" fill="#30ad63" data-original="#30ad63" class=""></path></g><path fill="#107476" d="M14 15.5c0 .284-.224.5-.5.5a.505.505 0 0 1-.5-.5V3.507c0-.28.232-.506.5-.506.276 0 .5.217.5.506z" data-original="#107476" class=""></path><g fill="#30ad63"><path d="M11.99 6.158a.5.5 0 1 0-.73.684l2.228 2.377 2.366-2.365a.5.5 0 1 0-.708-.708l-1.634 1.635z" fill="#30ad63" data-original="#30ad63" class=""></path><path d="M11.99 8.158a.5.5 0 1 0-.73.684l2.228 2.377 2.366-2.365a.5.5 0 1 0-.708-.708l-1.634 1.635zM13.512 5.781 11.99 4.158a.5.5 0 1 0-.73.684l2.228 2.377 2.366-2.365a.5.5 0 1 0-.708-.708z" fill="#30ad63" data-original="#30ad63" class=""></path></g><path fill="#107476" d="M4 15.5c0 .284-.224.5-.5.5a.505.505 0 0 1-.5-.5V5.507c0-.28.232-.506.5-.506.276 0 .5.217.5.506z" data-original="#107476" class=""></path><g fill="#30ad63"><path d="M1.99 8.158a.5.5 0 1 0-.73.684l2.228 2.377 2.366-2.365a.5.5 0 1 0-.708-.708L3.512 9.781z" fill="#30ad63" data-original="#30ad63" class=""></path><path d="M1.99 10.158a.5.5 0 1 0-.73.684l2.228 2.377 2.366-2.365a.5.5 0 1 0-.708-.708l-1.634 1.635zM3.512 7.781 1.99 6.158a.5.5 0 1 0-.73.684l2.228 2.377 2.366-2.365a.5.5 0 1 0-.708-.708z" fill="#30ad63" data-original="#30ad63" class=""></path></g></g></g></svg>