<?xml version="1.0" encoding="UTF-8"?>
<svg xmlns="http://www.w3.org/2000/svg" xmlns:xlink="http://www.w3.org/1999/xlink" xmlns:svgjs="http://svgjs.com/svgjs" version="1.1" width="512" height="512" x="0" y="0" viewBox="0 0 64 64" style="enable-background:new 0 0 512 512" xml:space="preserve" class="">
  <g transform="matrix(1.0699999999999996,0,0,1.0699999999999996,-2.239999999999988,12.760000000000012)">
    <path fill="#428e16" d="m2 51 .048-.1A38.013 38.013 0 0 0 6 34.029V30l1.87 3.739A29.661 29.661 0 0 1 11 47l2.183-3.93A22.374 22.374 0 0 0 16 32.2a22.383 22.383 0 0 0-3.19-11.516L10 16a21.108 21.108 0 0 1 11 18.53V46l8-22v9.292A28.416 28.416 0 0 0 32 46l2-15 .243.566A34.107 34.107 0 0 1 37 45l1.288-1.8A19.931 19.931 0 0 0 42 31.614a19.934 19.934 0 0 0-1.269-7L39 20a27.315 27.315 0 0 1 8 19.314V42l2.907-21.075A9.179 9.179 0 0 1 59 13a10 10 0 0 0-4 8v22l4-10 3 18z" data-original="#428e16" class=""/>
    <g fill="#27630b">
      <path d="M33.8 51H62l-1.858-11.147a21.281 21.281 0 0 1-5.279 6.595L53 48l-1-23-1.677 9.5A65.868 65.868 0 0 1 46 49l-2-15v1.207a17.209 17.209 0 0 1-8.852 15.044zM27.11 36.987 27 36l-6 10-3-18v4.784a26.828 26.828 0 0 1-.364 4.4 25.729 25.729 0 0 1-2.365 7.272L12 51h19.462a38.907 38.907 0 0 1-4.352-14.013zM4.734 51h5.7L7 39a32.971 32.971 0 0 1-2.266 12z" fill="#27630b" data-original="#27630b" class=""/>
    </g>
  </g>
</svg>
